<?xml version="1.0" encoding="utf-8"?>
<!-- Generator: Adobe Illustrator 23.0.2, SVG Export Plug-In . SVG Version: 6.00 Build 0)  -->
<svg version="1.1" id="Layer_1" xmlns="http://www.w3.org/2000/svg" xmlns:xlink="http://www.w3.org/1999/xlink" x="0px" y="0px"
	 viewBox="0 0 67.6 34.8" style="enable-background:new 0 0 67.6 34.8;" xml:space="preserve">
<g>
	<path d="M17.9,7c0.9,0.1,2,0.6,2.5,0.6c0.2,0,0.5,0.2,0.5,1c0,0.7,0.2,2.1,0.2,2.9c0,0.7-0.2,1.1-0.5,1.1c-0.2,0-0.4-0.4-0.5-0.9
		c-0.3-1.2-0.9-2.1-1.4-2.5c-1.8-1.4-3.5-1.7-5.3-1.7c-5.3,0-8.7,4.4-8.7,9.4c0,2.2,0.4,4,1.2,5.4c1.8,3.8,5.7,5.3,8.4,5.3
		c0.6,0,2.2-0.1,3.6-0.9c1.5-0.8,2.3-1.8,3.1-3.2c0.4-0.7,0.6-0.9,0.7-0.9c0.3,0,0.4,0.7,0.3,1.1c-0.1,0.8-0.9,2.6-1.3,3.3
		c-0.1,0.3-0.7,0.7-1,0.9c-0.5,0.2-3.2,0.9-6,0.9c-4.7,0-8.1-2.3-9.4-3.9c-1.3-1.5-2.8-3.8-2.8-7.6s2.2-6.8,3.6-7.9
		c2.8-2.3,5.9-3,8.9-3C15.1,6.5,16.6,6.7,17.9,7z"/>
	<path d="M36,7.1c0.2,0.1,0.4,0.6,0.4,0.6c0.1,0.6,0.3,2.5,0.3,2.7c0,0.6,0,0.9-0.2,0.9c-0.3,0-0.7-0.2-0.8-0.7
		c-0.4-1.2-1.3-2.2-1.6-2.4c-0.6-0.5-1.4-0.8-2.3-0.8c-2.2,0-3.8,1.7-3.8,3.9c0,2.3,1.7,3.4,4.6,5.3c2.5,1.7,4.6,3.4,4.6,6.4
		c0,1.7-0.9,3.5-2.7,4.7c-1.1,0.7-3,1.2-4.5,1.2c-1.1,0-3.3-0.4-4.3-0.9c-0.3-0.2-0.8-0.9-0.8-1.1c-0.2-1.1-0.5-2.6-0.5-3.1
		c0-0.1,0.3-0.6,0.5-0.6c0.3,0,0.8,0.9,1.2,1.9c0.9,1.8,3,2.6,4.3,2.6c2.3,0,4-1.6,4-4c0-1.4-0.7-2.9-4.1-5.1
		c-2.8-1.8-4.8-3.7-4.8-6.5c0-1.6,0.7-3,1.8-4c1-0.9,2.6-1.6,4.9-1.6C33.7,6.5,35.5,7,36,7.1z"/>
	<path d="M43.1,10.3C43,8.8,43,8.3,41.2,8c-0.7-0.1-0.9-0.4-0.9-0.6c0-0.3,0.4-0.4,0.8-0.4c0.9,0,2.5,0.1,3.6,0.1
		c1.6,0,2.4-0.1,3.5-0.1C48.7,7,49,7.1,49,7.4S48.7,7.9,48.1,8c-1.9,0.4-1.9,1.2-2,2.1c-0.1,1-0.1,3.2-0.1,9.7c0,1.8,0,3.9,0.1,4.9
		c0.1,1.8,0.3,2.4,2.4,2.8c0.6,0.1,0.9,0.3,0.9,0.6s-0.5,0.4-0.9,0.4c-1.7,0-4-0.2-4.9-0.2c-1,0-1.3,0.1-2.5,0.1
		c-0.6,0-0.9-0.2-0.9-0.5c0-0.2,0.3-0.4,1-0.6c1.7-0.4,1.8-0.9,1.9-2.4c0.1-1.2,0.2-4.6,0.2-7.4C43.2,15.5,43.2,11.4,43.1,10.3z"/>
	<path d="M63.4,7.1c0.2,0.1,0.4,0.6,0.4,0.6c0.1,0.6,0.3,2.5,0.3,2.7c0,0.6,0,0.9-0.2,0.9c-0.3,0-0.7-0.2-0.8-0.7
		c-0.4-1.2-1.3-2.2-1.6-2.4c-0.6-0.5-1.4-0.8-2.3-0.8c-2.2,0-3.8,1.7-3.8,3.9c0,2.3,1.7,3.4,4.6,5.3c2.5,1.7,4.6,3.4,4.6,6.4
		c0,1.7-0.9,3.5-2.7,4.7c-1.1,0.7-3,1.2-4.5,1.2c-1.1,0-3.3-0.4-4.3-0.9c-0.3-0.2-0.8-0.9-0.8-1.1c-0.2-1.1-0.5-2.6-0.5-3.1
		c0-0.1,0.3-0.6,0.5-0.6c0.3,0,0.8,0.9,1.2,1.9c0.9,1.8,3,2.6,4.3,2.6c2.3,0,4-1.6,4-4c0-1.4-0.7-2.9-4.1-5.1
		c-2.8-1.8-4.8-3.7-4.8-6.5c0-1.6,0.7-3,1.8-4c1-0.9,2.6-1.6,4.9-1.6C61.1,6.5,62.9,7,63.4,7.1z"/>
</g>
</svg>
