<svg width="216" height="30" viewBox="0 0 216 30">
  <g fill="#FFF">
    <path d="M16.5 4.2C17.4 4.3 18.5 4.8 19 4.8 19.2 4.8 19.5 5 19.5 5.8 19.5 6.5 19.7 7.9 19.7 8.7 19.7 9.4 19.5 9.8 19.2 9.8 19 9.8 18.8 9.4 18.7 8.9 18.4 7.7 17.8 6.8 17.3 6.4 15.5 5 13.8 4.7 12 4.7 6.7 4.7 3.3 9.1 3.3 14.1 3.3 16.3 3.7 18.1 4.5 19.5 6.3 23.3 10.2 24.8 12.9 24.8 13.5 24.8 15.1 24.7 16.5 23.9 18 23.1 18.8 22.1 19.6 20.7 20 20 20.2 19.8 20.3 19.8 20.6 19.8 20.7 20.5 20.6 20.9 20.5 21.7 19.7 23.5 19.3 24.2 19.2 24.5 18.6 24.9 18.3 25.1 17.8 25.3 15.1 26 12.3 26 7.6 26 4.2 23.7 2.9 22.1 1.5 20.8 0 18.4 0 14.7 0 10.9 2.2 7.9 3.6 6.8 6.4 4.5 9.5 3.8 12.5 3.8 13.7 3.7 15.2 3.9 16.5 4.2zM34.7 4.3C34.9 4.4 35.1 4.9 35.1 4.9 35.2 5.5 35.4 7.4 35.4 7.6 35.4 8.2 35.4 8.5 35.2 8.5 34.9 8.5 34.5 8.3 34.4 7.8 34 6.6 33.1 5.6 32.8 5.4 32.2 4.9 31.4 4.6 30.5 4.6 28.3 4.6 26.7 6.3 26.7 8.5 26.7 10.8 28.4 11.9 31.3 13.8 33.8 15.5 35.9 17.2 35.9 20.2 35.9 21.9 35 23.7 33.2 24.9 32.1 25.6 30.2 26.1 28.7 26.1 27.6 26.1 25.4 25.7 24.4 25.2 24.1 25 23.6 24.3 23.6 24.1 23.3 23 23 21.6 23 21.1 23 21 23.3 20.5 23.5 20.5 23.8 20.5 24.3 21.4 24.7 22.4 25.6 24.2 27.7 25 29 25 31.3 25 33 23.4 33 21 33 19.6 32.3 18.1 28.9 15.9 26 14.1 24 12.1 24 9.3 24 7.7 24.7 6.3 25.8 5.3 26.8 4.4 28.4 3.7 30.7 3.7 32.4 3.7 34.1 4.2 34.7 4.3zM41.7 7.5C41.6 6 41.6 5.5 39.8 5.2 39.1 5.1 38.9 4.8 38.9 4.6 38.9 4.3 39.3 4.2 39.7 4.2 40.6 4.2 42.2 4.3 43.3 4.3 44.9 4.3 45.7 4.2 46.8 4.2 47.3 4.2 47.6 4.3 47.6 4.6 47.6 4.9 47.3 5.1 46.7 5.2 44.8 5.6 44.8 6.4 44.7 7.3 44.5 8.4 44.5 10.5 44.5 17 44.5 18.8 44.5 20.9 44.6 21.9 44.7 23.7 44.9 24.3 47 24.7 47.6 24.8 47.9 25 47.9 25.3 47.9 25.6 47.4 25.7 47 25.7 45.3 25.7 43 25.5 42.1 25.5 41.1 25.5 40.8 25.6 39.6 25.6 39 25.6 38.7 25.4 38.7 25.1 38.7 24.9 39 24.7 39.7 24.5 41.4 24.1 41.5 23.6 41.6 22.1 41.7 20.9 41.8 17.5 41.8 14.7 41.8 12.7 41.8 8.6 41.7 7.5zM62.1 4.3C62.3 4.4 62.5 4.9 62.5 4.9 62.6 5.5 62.8 7.4 62.8 7.6 62.8 8.2 62.8 8.5 62.6 8.5 62.3 8.5 61.9 8.3 61.8 7.8 61.4 6.6 60.5 5.6 60.2 5.4 59.6 4.9 58.8 4.6 57.9 4.6 55.7 4.6 54.1 6.3 54.1 8.5 54.1 10.8 55.8 11.9 58.7 13.8 61.2 15.5 63.3 17.2 63.3 20.2 63.3 21.9 62.4 23.7 60.6 24.9 59.5 25.6 57.6 26.1 56.1 26.1 55 26.1 52.8 25.7 51.8 25.2 51.5 25 51 24.3 51 24.1 50.8 23 50.5 21.5 50.5 21 50.5 20.9 50.8 20.4 51 20.4 51.3 20.4 51.8 21.3 52.2 22.3 53.1 24.1 55.2 24.9 56.5 24.9 58.8 24.9 60.5 23.3 60.5 20.9 60.5 19.5 59.8 18 56.4 15.8 53.6 14 51.6 12.1 51.6 9.3 51.6 7.7 52.3 6.3 53.4 5.3 54.4 4.4 56 3.7 58.3 3.7 59.8 3.7 61.5 4.2 62.1 4.3zM75.2 29.5L75.2.5C75.2.2 75.4 0 75.7 0 76 0 76.2.2 76.2.5L76.2 29.5C76.2 29.8 76 30 75.7 30 75.4 30 75.2 29.8 75.2 29.5zM91.2 12.9C89.6 12.9 88.3 12 88.3 9.5 88.3 7.4 89.6 6.2 91.2 6.2L93.1 6.2C93.2 6.2 93.2 6.2 93.2 6.3L93.1 7C93.1 7.1 93 7.1 92.9 7.1 92.3 6.9 92.1 6.8 91.1 6.8 90.1 6.8 89.6 7.8 89.6 9.6 89.6 11.8 90.5 12.4 91.5 12.4 92 12.4 92.5 12.1 92.9 11.7L93 11.7 93.3 12 93.3 12.1C92.8 12.6 92 12.9 91.2 12.9zM99.2 12.8L95 12.8C94.9 12.8 94.9 12.8 94.9 12.7L94.9 6.3C94.9 6.2 94.9 6.2 95 6.2L99 6.2C99.1 6.2 99.2 6.2 99.2 6.3L99.2 6.8C99.2 6.9 99.1 6.9 99 6.9 99 6.9 97.8 6.7 97.3 6.7L96.4 6.7C96.3 6.7 96.1 6.8 96.1 7L96.1 9C96.1 9 96.1 9.1 96.2 9.1L98.2 9C98.3 9 98.3 9 98.3 9.1L98.3 9.6C98.3 9.7 98.2 9.7 98.2 9.7L96.2 9.6C96.2 9.6 96.1 9.6 96.1 9.7L96.1 12C96.1 12.1 96.2 12.3 96.4 12.3L97.3 12.3C97.9 12.3 99.2 12.1 99.2 12.1 99.3 12.1 99.4 12.1 99.4 12.2L99.4 12.8 99.2 12.8zM106.1 11L106.1 12.8C106.1 13 105.5 13 105.5 12.9L102 8.1C101.9 8 101.9 8.1 101.9 8.1L102 12.6C102 12.7 102 12.8 101.9 12.8L101 12.8C100.9 12.8 100.9 12.7 100.9 12.6L101 8 101 6.4C101 6.3 101 6.3 101.1 6.3L101.7 6.3C101.8 6.3 101.9 6.3 101.9 6.4L105 10.7C105.1 10.8 105.2 10.8 105.2 10.7L105.1 6.6C105.1 6.5 105.1 6.4 105.2 6.4L105.9 6.4C106 6.4 106 6.5 106 6.6L106.1 11 106.1 11zM112.9 6.8C112.9 6.9 112.8 6.9 112.9 6.8 112.8 6.9 111.7 6.8 111.1 6.8 111 6.8 110.9 6.9 110.9 7L110.9 12.8C110.9 12.9 110.9 12.9 110.8 12.9L109.8 12.9C109.7 12.9 109.7 12.9 109.7 12.8L109.7 7C109.7 6.9 109.6 6.8 109.5 6.8 108.9 6.8 107.8 6.9 107.8 6.9 107.7 6.9 107.7 6.9 107.7 6.8L107.7 6.3C107.7 6.2 107.8 6.2 107.9 6.2L112.8 6.2C112.9 6.2 113 6.2 113 6.3L112.9 6.8 112.9 6.8zM118.7 12.8L114.6 12.8C114.5 12.8 114.5 12.8 114.5 12.7L114.5 6.3C114.5 6.2 114.5 6.2 114.6 6.2L118.6 6.2C118.7 6.2 118.8 6.2 118.8 6.3L118.8 6.8C118.8 6.9 118.7 6.9 118.6 6.9 118.6 6.9 117.4 6.7 116.9 6.7L116 6.7C115.9 6.7 115.7 6.8 115.7 7L115.7 9C115.7 9 115.7 9.1 115.8 9.1L117.8 9C117.9 9 117.9 9 117.9 9.1L117.9 9.6C117.9 9.7 117.8 9.7 117.8 9.7L115.8 9.6C115.8 9.6 115.7 9.6 115.7 9.7L115.7 12C115.7 12.1 115.8 12.3 116 12.3L116.9 12.3C117.5 12.3 118.8 12.1 118.8 12.1 118.9 12.1 119 12.1 119 12.2L119 12.8 118.7 12.8zM125.7 12.8L124.5 12.8C124.4 12.8 124.4 12.7 124.3 12.7L122.9 10.2C122.7 9.9 122.5 9.8 122.3 9.8L121.9 9.8C121.8 9.8 121.7 9.9 121.7 10L121.7 12.8C121.7 12.9 121.7 12.9 121.6 12.9L120.6 12.9C120.5 12.9 120.5 12.9 120.5 12.8L120.5 6.4C120.5 6.3 120.5 6.3 120.6 6.3L123.5 6.3C124.5 6.3 125.3 7 125.3 7.9 125.3 8.8 124.6 9.5 123.7 9.7 123.6 9.7 123.6 9.8 123.7 9.8 123.8 9.9 123.9 10 124.1 10.3L125.6 12.4 125.9 12.8 125.7 12.8 125.7 12.8zM122.7 6.6L122 6.6C121.9 6.6 121.7 6.7 121.7 6.9L121.7 9.1C121.7 9.2 121.8 9.3 121.9 9.3L122.3 9.3C123.3 9.3 123.9 8.9 123.9 7.9 123.9 7.1 123.4 6.6 122.7 6.6zM134.6 6.9C134.6 6.9 133.3 6.7 132.9 6.7L132.1 6.7C132 6.7 131.8 6.8 131.8 7L131.8 9C131.8 9 131.8 9.1 131.9 9.1L133.8 9C133.9 9 133.9 9 133.9 9.1L133.9 9.6C133.9 9.7 133.8 9.7 133.8 9.7L131.9 9.6C131.9 9.6 131.8 9.6 131.8 9.7L131.8 12.7C131.8 12.8 131.8 12.8 131.7 12.8L130.7 12.8C130.6 12.8 130.6 12.8 130.6 12.7L130.6 6.3C130.6 6.2 130.6 6.2 130.7 6.2L134.6 6.2C134.7 6.2 134.8 6.2 134.8 6.3L134.8 6.8C134.8 6.9 134.7 6.9 134.6 6.9L134.6 6.9zM138.7 13C136.5 13 135.8 11.3 135.8 9.5 135.8 7.7 136.5 6 138.7 6 140.9 6 141.6 7.7 141.6 9.5 141.6 11.2 140.9 13 138.7 13zM138.7 6.5C137.4 6.5 137.2 8.1 137.2 9.4 137.2 10.6 137.3 12.6 138.8 12.6 140.1 12.6 140.3 11 140.3 9.7 140.3 8.4 140.2 6.5 138.7 6.5zM148.7 12.8L147.5 12.8C147.4 12.8 147.4 12.7 147.3 12.7L145.9 10.2C145.7 9.9 145.5 9.8 145.3 9.8L144.9 9.8C144.8 9.8 144.7 9.9 144.7 10L144.7 12.8C144.7 12.9 144.7 12.9 144.6 12.9L143.6 12.9C143.5 12.9 143.5 12.9 143.5 12.8L143.5 6.4C143.5 6.3 143.5 6.3 143.6 6.3L146.5 6.3C147.5 6.3 148.3 7 148.3 7.9 148.3 8.8 147.6 9.5 146.7 9.7 146.6 9.7 146.6 9.8 146.7 9.8 146.8 9.9 146.9 10 147.1 10.3L148.6 12.4 148.9 12.8 148.7 12.8zM145.7 6.6L145 6.6C144.9 6.6 144.7 6.7 144.7 6.9L144.7 9.1C144.7 9.2 144.8 9.3 144.9 9.3L145.3 9.3C146.3 9.3 146.9 8.9 146.9 7.9 146.9 7.1 146.4 6.6 145.7 6.6zM155.7 12.9C154.7 12.9 154 12.7 153.4 12.4 153.3 12.4 153.3 12.3 153.3 12.2L153.5 11.5C153.5 11.4 153.6 11.4 153.7 11.5 154.2 12 154.9 12.4 155.7 12.4 156.3 12.4 157 11.9 157 11.3 157 9.6 153.3 10.3 153.3 7.8 153.3 6.7 154.1 6 155.3 6 156.3 6 157.1 6.2 157.6 6.2 157.7 6.2 157.7 6.3 157.7 6.3L157.5 7C157.5 7.1 157.4 7.1 157.3 7.1 156.8 6.8 156.3 6.5 155.3 6.5 154.8 6.5 154.3 6.8 154.3 7.4 154.3 9.2 158 8.3 158 11.1 158.1 12.4 157.1 12.9 155.7 12.9zM164.5 6.8C164.5 6.9 164.4 6.9 164.4 6.9 164.4 6.9 163.3 6.8 162.7 6.8 162.6 6.8 162.5 6.9 162.5 7L162.5 12.8C162.5 12.9 162.5 12.9 162.4 12.9L161.4 12.9C161.3 12.9 161.3 12.9 161.3 12.8L161.3 7C161.3 6.9 161.2 6.8 161.1 6.8 160.5 6.8 159.4 6.9 159.4 6.9 159.3 6.9 159.3 6.9 159.3 6.8L159.3 6.3C159.3 6.2 159.4 6.2 159.5 6.2L164.4 6.2C164.5 6.2 164.6 6.2 164.6 6.3L164.5 6.8 164.5 6.8zM171.3 12.8L170.1 12.8C170 12.8 170 12.7 169.9 12.7L168.5 10.2C168.3 9.9 168.1 9.8 167.9 9.8L167.5 9.8C167.4 9.8 167.3 9.9 167.3 10L167.3 12.8C167.3 12.9 167.3 12.9 167.2 12.9L166.2 12.9C166.1 12.9 166.1 12.9 166.1 12.8L166.1 6.4C166.1 6.3 166.1 6.3 166.2 6.3L169.1 6.3C170.1 6.3 170.9 7 170.9 7.9 170.9 8.8 170.2 9.5 169.3 9.7 169.2 9.7 169.2 9.8 169.3 9.8 169.4 9.9 169.5 10 169.7 10.3L171.2 12.4 171.5 12.8 171.3 12.8zM168.4 6.6L167.7 6.6C167.6 6.6 167.4 6.7 167.4 6.9L167.4 9.1C167.4 9.2 167.5 9.3 167.6 9.3L168 9.3C169 9.3 169.6 8.9 169.6 7.9 169.5 7.1 169 6.6 168.4 6.6zM178.6 12.8L177.4 12.8C177.3 12.8 177.2 12.8 177.2 12.7 177.2 12.7 177 12.2 176.9 11.9L176.5 11C176.5 10.9 176.4 10.9 176.4 10.9L174.3 10.9C174.2 10.9 174.2 10.9 174.2 11L173.7 12.7C173.7 12.8 173.6 12.8 173.5 12.8L172.7 12.8C172.6 12.8 172.6 12.7 172.6 12.6L175.1 6.2C175.1 6.1 175.9 6.1 175.9 6.2L178.2 11.9C178.3 12.2 178.6 12.6 178.6 12.6 178.7 12.8 178.7 12.8 178.6 12.8L178.6 12.8zM175.5 7.9C175.5 7.8 175.4 7.8 175.4 7.9L174.5 10.4C174.5 10.5 174.5 10.5 174.6 10.5L176.3 10.5C176.4 10.5 176.4 10.4 176.4 10.4L175.5 7.9 175.5 7.9zM184.2 6.8C184.2 6.9 184.1 6.9 184.1 6.9 184.1 6.9 183 6.8 182.4 6.8 182.3 6.8 182.2 6.9 182.2 7L182.2 12.8C182.2 12.9 182.2 12.9 182.1 12.9L181.1 12.9C181 12.9 181 12.9 181 12.8L181 7C181 6.9 180.9 6.8 180.8 6.8 180.2 6.8 179.1 6.9 179.1 6.9 179 6.9 179 6.9 179 6.8L179 6.3C179 6.2 179.1 6.2 179.2 6.2L184.1 6.2C184.2 6.2 184.3 6.2 184.3 6.3L184.2 6.8 184.2 6.8zM190 12.8L185.9 12.8C185.8 12.8 185.8 12.8 185.8 12.7L185.8 6.3C185.8 6.2 185.8 6.2 185.9 6.2L189.9 6.2C190 6.2 190.1 6.2 190.1 6.3L190.1 6.8C190.1 6.9 190 6.9 189.9 6.9 189.9 6.9 188.7 6.7 188.2 6.7L187.3 6.7C187.2 6.7 187 6.8 187 7L187 9C187 9 187 9.1 187.1 9.1L189.1 9C189.2 9 189.2 9 189.2 9.1L189.2 9.6C189.2 9.7 189.1 9.7 189.1 9.7L187.1 9.6C187.1 9.6 187 9.6 187 9.7L187 12C187 12.1 187.1 12.3 187.3 12.3L188.2 12.3C188.8 12.3 190.1 12.1 190.1 12.1 190.2 12.1 190.3 12.1 190.3 12.2L190.3 12.8 190 12.8 190 12.8zM196.6 12.8C196.5 12.8 196.2 12.5 196.2 12.5L196 12.5C195.6 12.7 195 12.9 194.3 12.9 192.7 12.9 191.4 12 191.4 9.5 191.4 7.4 192.7 6.2 194.3 6.2L196.2 6.2C196.3 6.2 196.3 6.2 196.3 6.3L196.2 7C196.2 7.1 196.1 7.1 196 7.1 195.4 6.9 195.2 6.8 194.2 6.8 193.2 6.8 192.7 7.8 192.7 9.6 192.7 11.8 193.6 12.5 194.6 12.5 195 12.5 195.6 12.2 195.6 11.8 195.6 11.7 195.5 10 195.5 10L195.5 9.7C195.5 9.6 195.6 9.5 195.6 9.5L196.6 9.5C196.6 9.5 196.7 9.5 196.7 9.6L196.7 12.8 196.6 12.8zM199.8 12.8L198.8 12.8C198.7 12.8 198.7 12.8 198.7 12.7L198.7 6.3C198.7 6.2 198.7 6.2 198.8 6.2L199.8 6.2C199.9 6.2 199.9 6.2 199.9 6.3L199.9 12.7C199.9 12.8 199.9 12.8 199.8 12.8zM204.7 12.9C203.1 12.9 201.8 12 201.8 9.5 201.8 7.4 203.1 6.2 204.7 6.2L206.6 6.2C206.7 6.2 206.7 6.2 206.7 6.3L206.6 7C206.6 7.1 206.5 7.1 206.4 7.1 205.8 6.9 205.6 6.8 204.6 6.8 203.6 6.8 203.1 7.8 203.1 9.6 203.1 11.8 204 12.4 205 12.4 205.5 12.4 206 12.1 206.4 11.7L206.5 11.7 206.8 12 206.8 12.1C206.3 12.6 205.5 12.9 204.7 12.9L204.7 12.9zM215.5 10.2L214.7 10.2 214.7 12.7C214.7 12.8 214.6 12.8 214.6 12.8L212 12.8C210.8 12.8 210.2 12 210.2 11.3 210.2 10.6 210.7 10 211.5 9.8 211 9.6 210.7 9.1 210.7 8.6 210.7 7.7 211.4 7.2 212.4 7.2L213.4 7.2C213.5 7.2 213.6 7.2 213.6 7.3L213.6 7.7C213.6 7.8 213.5 7.8 213.5 7.8 213.5 7.8 213.1 7.6 212.9 7.6 212.4 7.6 212 7.9 212 8.6 212 9.2 212.4 9.7 213 9.7L213.8 9.7 213.8 9C213.8 8.9 213.9 8.9 213.9 8.9L214.7 9C214.8 9 214.8 9 214.8 9.1L214.8 9.7 215.6 9.7C215.7 9.7 215.7 9.7 215.7 9.8L215.7 10.1C215.5 10.1 215.5 10.2 215.5 10.2L215.5 10.2zM213.6 10.1L212.6 10.1C211.9 10.1 211.6 10.6 211.6 11.2 211.6 11.8 212 12.4 212.5 12.4 213 12.4 213.3 12.4 213.6 12.3L213.6 10.1zM89.6 25.7L88.6 25.7C88.5 25.7 88.5 25.7 88.5 25.6L88.5 19.2C88.5 19.1 88.5 19.1 88.6 19.1L89.6 19.1C89.7 19.1 89.7 19.1 89.7 19.2L89.7 25.6C89.7 25.7 89.7 25.7 89.6 25.7zM96.9 23.9L96.9 25.7C96.9 25.9 96.3 25.9 96.3 25.8L92.8 21C92.7 20.9 92.7 21 92.7 21L92.8 25.5C92.8 25.6 92.8 25.7 92.7 25.7L91.9 25.7C91.8 25.7 91.8 25.6 91.8 25.5L91.9 20.8 91.9 19.2C91.9 19.1 91.9 19.1 92 19.1L92.6 19.1C92.7 19.1 92.8 19.1 92.8 19.2L95.9 23.5C96 23.6 96.1 23.6 96.1 23.5L96 19.4C96 19.3 96 19.2 96.1 19.2L96.8 19.2C96.9 19.2 96.9 19.3 96.9 19.4L96.9 23.9 96.9 23.9zM103.8 19.7C103.8 19.8 103.7 19.8 103.7 19.8 103.7 19.8 102.6 19.7 102 19.7 101.9 19.7 101.8 19.8 101.8 19.9L101.8 25.7C101.8 25.8 101.8 25.8 101.7 25.8L100.7 25.8C100.6 25.8 100.6 25.8 100.6 25.7L100.6 19.9C100.6 19.8 100.5 19.7 100.4 19.7 99.8 19.7 98.7 19.8 98.7 19.8 98.6 19.8 98.6 19.8 98.6 19.7L98.6 19.2C98.6 19.1 98.7 19.1 98.8 19.1L103.7 19.1C103.8 19.1 103.9 19.1 103.9 19.2L103.8 19.7 103.8 19.7zM109.6 25.7L105.5 25.7C105.4 25.7 105.4 25.7 105.4 25.6L105.4 19.2C105.4 19.1 105.4 19.1 105.5 19.1L109.5 19.1C109.6 19.1 109.7 19.1 109.7 19.2L109.7 19.7C109.7 19.8 109.6 19.8 109.5 19.8 109.5 19.8 108.3 19.6 107.8 19.6L106.9 19.6C106.8 19.6 106.6 19.7 106.6 19.9L106.6 21.9C106.6 21.9 106.6 22 106.7 22L108.7 21.9C108.8 21.9 108.8 21.9 108.8 22L108.8 22.5C108.8 22.6 108.7 22.6 108.7 22.6L106.7 22.5C106.7 22.5 106.6 22.5 106.6 22.6L106.6 24.9C106.6 25 106.7 25.2 106.9 25.2L107.8 25.2C108.4 25.2 109.7 25 109.7 25 109.8 25 109.9 25 109.9 25.1L109.9 25.7C109.9 25.7 109.6 25.7 109.6 25.7zM116.6 25.7L115.4 25.7C115.3 25.7 115.3 25.6 115.2 25.6L113.8 23.1C113.6 22.8 113.4 22.7 113.2 22.7L112.8 22.7C112.7 22.7 112.6 22.8 112.6 22.9L112.6 25.7C112.6 25.8 112.6 25.8 112.5 25.8L111.5 25.8C111.4 25.8 111.4 25.8 111.4 25.7L111.4 19.3C111.4 19.2 111.4 19.2 111.5 19.2L114.4 19.2C115.4 19.2 116.2 19.9 116.2 20.8 116.2 21.7 115.5 22.4 114.6 22.6 114.5 22.6 114.5 22.7 114.6 22.7 114.7 22.8 114.8 22.9 115 23.2L116.5 25.3 116.8 25.7C116.7 25.6 116.7 25.7 116.6 25.7L116.6 25.7zM113.6 19.5L112.9 19.5C112.8 19.5 112.6 19.6 112.6 19.8L112.6 22C112.6 22.1 112.7 22.2 112.8 22.2L113.2 22.2C114.2 22.2 114.8 21.8 114.8 20.8 114.8 20 114.3 19.5 113.6 19.5zM123.4 23.9L123.4 25.7C123.4 25.9 122.8 25.9 122.8 25.8L119.3 21C119.2 20.9 119.2 21 119.2 21L119.3 25.5C119.3 25.6 119.3 25.7 119.2 25.7L118.4 25.7C118.3 25.7 118.3 25.6 118.3 25.5L118.4 20.8 118.4 19.2C118.4 19.1 118.4 19.1 118.5 19.1L119.1 19.1C119.2 19.1 119.3 19.1 119.3 19.2L122.4 23.5C122.5 23.6 122.6 23.6 122.6 23.5L122.5 19.4C122.5 19.3 122.5 19.2 122.6 19.2L123.3 19.2C123.4 19.2 123.4 19.3 123.4 19.4L123.4 23.9 123.4 23.9zM130.9 25.7L129.7 25.7C129.6 25.7 129.5 25.7 129.5 25.6 129.5 25.6 129.3 25.1 129.2 24.8L128.8 23.9C128.8 23.8 128.7 23.8 128.7 23.8L126.6 23.8C126.5 23.8 126.5 23.8 126.5 23.9L126 25.6C126 25.7 125.9 25.7 125.8 25.7L125 25.7C124.9 25.7 124.9 25.6 124.9 25.5L127.4 19.1C127.4 19 128.2 19 128.2 19.1L130.5 24.8C130.6 25.1 130.9 25.5 130.9 25.5 131 25.7 131 25.7 130.9 25.7zM127.7 20.8C127.7 20.7 127.6 20.7 127.7 20.8L126.7 23.3C126.7 23.4 126.7 23.4 126.8 23.4L128.5 23.4C128.6 23.4 128.6 23.3 128.6 23.3L127.7 20.8zM136.4 19.7C136.4 19.8 136.3 19.8 136.3 19.8 136.3 19.8 135.2 19.7 134.6 19.7 134.5 19.7 134.4 19.8 134.4 19.9L134.4 25.7C134.4 25.8 134.4 25.8 134.3 25.8L133.3 25.8C133.2 25.8 133.2 25.8 133.2 25.7L133.2 19.9C133.2 19.8 133.1 19.7 133 19.7 132.4 19.7 131.3 19.8 131.3 19.8 131.2 19.8 131.2 19.8 131.2 19.7L131.2 19.2C131.2 19.1 131.3 19.1 131.4 19.1L136.3 19.1C136.4 19.1 136.5 19.1 136.5 19.2L136.4 19.7 136.4 19.7zM139.1 25.7L138.1 25.7C138 25.7 138 25.7 138 25.6L138 19.2C138 19.1 138 19.1 138.1 19.1L139.1 19.1C139.2 19.1 139.2 19.1 139.2 19.2L139.2 25.6C139.2 25.7 139.2 25.7 139.1 25.7zM143.9 25.9C141.7 25.9 141 24.2 141 22.4 141 20.6 141.7 18.9 143.9 18.9 146.1 18.9 146.8 20.6 146.8 22.4 146.9 24.1 146.2 25.9 143.9 25.9zM143.9 19.4C142.6 19.4 142.4 21 142.4 22.3 142.4 23.5 142.5 25.5 144 25.5 145.3 25.5 145.5 23.9 145.5 22.6 145.5 21.3 145.4 19.4 143.9 19.4zM153.8 23.9L153.8 25.7C153.8 25.9 153.2 25.9 153.2 25.8L149.7 21C149.6 20.9 149.6 21 149.6 21L149.7 25.5C149.7 25.6 149.7 25.7 149.6 25.7L148.8 25.7C148.7 25.7 148.7 25.6 148.7 25.5L148.8 20.8 148.8 19.2C148.8 19.1 148.8 19.1 148.9 19.1L149.5 19.1C149.6 19.1 149.7 19.1 149.7 19.2L152.8 23.5C152.9 23.6 153 23.6 153 23.5L152.9 19.4C152.9 19.3 152.9 19.2 153 19.2L153.7 19.2C153.8 19.2 153.8 19.3 153.8 19.4L153.8 23.9 153.8 23.9zM161.3 25.7L160.1 25.7C160 25.7 159.9 25.7 159.9 25.6 159.9 25.6 159.7 25.1 159.6 24.8L159.2 23.9C159.2 23.8 159.1 23.8 159.1 23.8L157 23.8C156.9 23.8 156.9 23.8 156.9 23.9L156.4 25.6C156.4 25.7 156.3 25.7 156.2 25.7L155.4 25.7C155.3 25.7 155.3 25.6 155.3 25.5L157.8 19.1C157.8 19 158.6 19 158.6 19.1L160.9 24.8C161 25.1 161.3 25.5 161.3 25.5 161.4 25.7 161.4 25.7 161.3 25.7L161.3 25.7zM158.1 20.8C158.1 20.7 158 20.7 158 20.8L157.1 23.3C157.1 23.4 157.1 23.4 157.2 23.4L158.9 23.4C159 23.4 159 23.3 159 23.3L158.1 20.8 158.1 20.8zM166.9 25.7L163 25.7C162.9 25.7 162.9 25.7 162.9 25.6L162.9 19.2C162.9 19.1 162.9 19.1 163 19.1L164 19.1C164.1 19.1 164.1 19.1 164.1 19.2L164.1 24.9C164.1 25 164.2 25.2 164.4 25.2L165.2 25.2C165.8 25.2 166.9 25 166.9 25 167 25 167.1 25 167.1 25.1L167.1 25.7 166.9 25.7 166.9 25.7zM173.9 25.8C172.9 25.8 172.2 25.6 171.6 25.3 171.5 25.3 171.5 25.2 171.5 25.1L171.7 24.4C171.7 24.3 171.8 24.3 171.9 24.4 172.4 24.9 173.1 25.3 173.9 25.3 174.5 25.3 175.2 24.8 175.2 24.2 175.2 22.5 171.5 23.2 171.5 20.7 171.5 19.6 172.3 18.9 173.5 18.9 174.5 18.9 175.3 19.1 175.8 19.1 175.9 19.1 175.9 19.2 175.9 19.2L175.7 19.9C175.7 20 175.6 20 175.5 20 175 19.7 174.5 19.4 173.5 19.4 173 19.4 172.5 19.7 172.5 20.3 172.5 22.1 176.2 21.2 176.2 24 176.3 25.3 175.3 25.8 173.9 25.8zM182.8 19.7C182.8 19.8 182.7 19.8 182.7 19.8 182.7 19.8 181.6 19.7 181 19.7 180.9 19.7 180.8 19.8 180.8 19.9L180.8 25.7C180.8 25.8 180.8 25.8 180.7 25.8L179.7 25.8C179.6 25.8 179.6 25.8 179.6 25.7L179.6 19.9C179.6 19.8 179.5 19.7 179.4 19.7 178.8 19.7 177.7 19.8 177.7 19.8 177.6 19.8 177.6 19.8 177.6 19.7L177.6 19.2C177.6 19.1 177.7 19.1 177.8 19.1L182.7 19.1C182.8 19.1 182.9 19.1 182.9 19.2L182.8 19.7 182.8 19.7zM189.4 20L189.3 23.7C189.3 25.1 188.5 25.9 187 25.9 185.3 25.9 184.4 25.2 184.4 23.7L184.4 19.2C184.4 19.1 184.4 19.1 184.5 19.1L185.5 19.1C185.6 19.1 185.6 19.1 185.6 19.2L185.6 23.6C185.6 24.6 186.3 25.2 187 25.2 187.7 25.2 188.4 24.8 188.4 23.7L188.4 20 188.4 19.2C188.4 19.1 188.4 19 188.5 19L189.4 19C189.5 19 189.5 19.1 189.5 19.2 189.4 19.2 189.4 19.7 189.4 20L189.4 20zM193.6 25.7C192.4 25.7 192.3 25.6 192 25.6 191.7 25.6 191.7 25.7 191.5 25.7 191.4 25.7 191.4 25.7 191.4 25.6L191.4 19.2C191.4 19.1 191.4 19.1 191.5 19.1L193.9 19.1C195.3 19.1 196.6 20.2 196.6 22.3 196.6 24.1 195.6 25.7 193.6 25.7L193.6 25.7zM193.6 19.5L192.9 19.5C192.8 19.5 192.7 19.6 192.7 19.7L192.7 24.6C192.7 25 193 25.2 193.5 25.2 195.1 25.2 195.3 23.3 195.3 22.1 195.3 20.2 194.4 19.5 193.6 19.5L193.6 19.5zM199.5 25.7L198.5 25.7C198.4 25.7 198.4 25.7 198.4 25.6L198.4 19.2C198.4 19.1 198.4 19.1 198.5 19.1L199.5 19.1C199.6 19.1 199.6 19.1 199.6 19.2L199.6 25.6C199.7 25.7 199.6 25.7 199.5 25.7zM206 25.7L201.9 25.7C201.8 25.7 201.8 25.7 201.8 25.6L201.8 19.2C201.8 19.1 201.8 19.1 201.9 19.1L205.9 19.1C206 19.1 206.1 19.1 206.1 19.2L206.1 19.7C206.1 19.8 206 19.8 205.9 19.8 205.9 19.8 204.7 19.6 204.2 19.6L203.3 19.6C203.2 19.6 203 19.7 203 19.9L203 21.9C203 21.9 203 22 203.1 22L205.1 21.9C205.2 21.9 205.2 21.9 205.2 22L205.2 22.5C205.2 22.6 205.1 22.6 205.1 22.6L203.1 22.5C203.1 22.5 203 22.5 203 22.6L203 24.9C203 25 203.1 25.2 203.3 25.2L204.2 25.2C204.8 25.2 206.1 25 206.1 25 206.2 25 206.3 25 206.3 25.1L206.3 25.7 206 25.7 206 25.7zM210 25.8C209 25.8 208.3 25.6 207.7 25.3 207.6 25.3 207.6 25.2 207.6 25.1L207.8 24.4C207.8 24.3 207.9 24.3 208 24.4 208.5 24.9 209.2 25.3 210 25.3 210.6 25.3 211.3 24.8 211.3 24.2 211.3 22.5 207.6 23.2 207.6 20.7 207.6 19.6 208.4 18.9 209.6 18.9 210.6 18.9 211.4 19.1 211.9 19.1 212 19.1 212 19.2 212 19.2L211.8 19.9C211.8 20 211.7 20 211.6 20 211.1 19.7 210.6 19.4 209.6 19.4 209.1 19.4 208.6 19.7 208.6 20.3 208.6 22.1 212.3 21.2 212.3 24 212.4 25.3 211.4 25.8 210 25.8z"/>
  </g>
</svg>
