<?xml version="1.0" encoding="utf-8"?>
<!-- Generator: Adobe Illustrator 21.0.0, SVG Export Plug-In . SVG Version: 6.00 Build 0)  -->
<svg version="1.1" id="Layer_1" xmlns="http://www.w3.org/2000/svg" xmlns:xlink="http://www.w3.org/1999/xlink" x="0px" y="0px"
	 viewBox="0 0 225 34.8" style="enable-background:new 0 0 225 34.8;" xml:space="preserve">
<g>
	<path d="M20.9,9c0.9,0.1,2,0.6,2.5,0.6c0.2,0,0.5,0.2,0.5,1c0,0.7,0.2,2.1,0.2,2.9c0,0.7-0.2,1.1-0.5,1.1c-0.2,0-0.4-0.4-0.5-0.9
		c-0.3-1.2-0.9-2.1-1.4-2.5c-1.8-1.4-3.5-1.7-5.3-1.7c-5.3,0-8.7,4.4-8.7,9.4c0,2.2,0.4,4,1.2,5.4c1.8,3.8,5.7,5.3,8.4,5.3
		c0.6,0,2.2-0.1,3.6-0.9c1.5-0.8,2.3-1.8,3.1-3.2c0.4-0.7,0.6-0.9,0.7-0.9c0.3,0,0.4,0.7,0.3,1.1c-0.1,0.8-0.9,2.6-1.3,3.3
		c-0.1,0.3-0.7,0.7-1,0.9c-0.5,0.2-3.2,0.9-6,0.9c-4.7,0-8.1-2.3-9.4-3.9c-1.3-1.5-2.8-3.8-2.8-7.6s2.2-6.8,3.6-7.9
		c2.8-2.3,5.9-3,8.9-3C18.1,8.5,19.6,8.7,20.9,9z"/>
	<path d="M39,9.1c0.2,0.1,0.4,0.6,0.4,0.6c0.1,0.6,0.3,2.5,0.3,2.7c0,0.6,0,0.9-0.2,0.9c-0.3,0-0.7-0.2-0.8-0.7
		c-0.4-1.2-1.3-2.2-1.6-2.4c-0.6-0.5-1.4-0.8-2.3-0.8c-2.2,0-3.8,1.7-3.8,3.9c0,2.3,1.7,3.4,4.6,5.3c2.5,1.7,4.6,3.4,4.6,6.4
		c0,1.7-0.9,3.5-2.7,4.7c-1.1,0.7-3,1.2-4.5,1.2c-1.1,0-3.3-0.4-4.3-0.9c-0.3-0.2-0.8-0.9-0.8-1.1c-0.2-1.1-0.5-2.6-0.5-3.1
		c0-0.1,0.3-0.6,0.5-0.6c0.3,0,0.8,0.9,1.2,1.9c0.9,1.8,3,2.6,4.3,2.6c2.3,0,4-1.6,4-4c0-1.4-0.7-2.9-4.1-5.1
		c-2.8-1.8-4.8-3.7-4.8-6.5c0-1.6,0.7-3,1.8-4c1-0.9,2.6-1.6,4.9-1.6C36.7,8.5,38.5,9,39,9.1z"/>
	<path d="M46.1,12.3c-0.1-1.5-0.1-2-1.9-2.3c-0.7-0.1-0.9-0.4-0.9-0.6c0-0.3,0.4-0.4,0.8-0.4c0.9,0,2.5,0.1,3.6,0.1
		c1.6,0,2.4-0.1,3.5-0.1C51.7,9,52,9.1,52,9.4s-0.3,0.5-0.9,0.6c-1.9,0.4-1.9,1.2-2,2.1c-0.1,1-0.1,3.2-0.1,9.7c0,1.8,0,3.9,0.1,4.9
		c0.1,1.8,0.3,2.4,2.4,2.8c0.6,0.1,0.9,0.3,0.9,0.6s-0.5,0.4-0.9,0.4c-1.7,0-4-0.2-4.9-0.2c-1,0-1.3,0.1-2.5,0.1
		c-0.6,0-0.9-0.2-0.9-0.5c0-0.2,0.3-0.4,1-0.6c1.7-0.4,1.8-0.9,1.9-2.4c0.1-1.2,0.2-4.6,0.2-7.4C46.2,17.5,46.2,13.4,46.1,12.3z"/>
	<path d="M66.4,9.1c0.2,0.1,0.4,0.6,0.4,0.6c0.1,0.6,0.3,2.5,0.3,2.7c0,0.6,0,0.9-0.2,0.9c-0.3,0-0.7-0.2-0.8-0.7
		c-0.4-1.2-1.3-2.2-1.6-2.4c-0.6-0.5-1.4-0.8-2.3-0.8c-2.2,0-3.8,1.7-3.8,3.9c0,2.3,1.7,3.4,4.6,5.3c2.5,1.7,4.6,3.4,4.6,6.4
		c0,1.7-0.9,3.5-2.7,4.7c-1.1,0.7-3,1.2-4.5,1.2c-1.1,0-3.3-0.4-4.3-0.9c-0.3-0.2-0.8-0.9-0.8-1.1c-0.2-1.1-0.5-2.6-0.5-3.1
		c0-0.1,0.3-0.6,0.5-0.6c0.3,0,0.8,0.9,1.2,1.9c0.9,1.8,3,2.6,4.3,2.6c2.3,0,4-1.6,4-4c0-1.4-0.7-2.9-4.1-5.1
		c-2.8-1.8-4.8-3.7-4.8-6.5c0-1.6,0.7-3,1.8-4c1-0.9,2.6-1.6,4.9-1.6C64.1,8.5,65.9,9,66.4,9.1z"/>
</g>
<path d="M79.5,34.3v-29c0-0.3,0.2-0.5,0.5-0.5l0,0c0.3,0,0.5,0.2,0.5,0.5l0,0v29c0,0.3-0.2,0.5-0.5,0.5l0,0
	C79.8,34.8,79.5,34.6,79.5,34.3L79.5,34.3z"/>
<g>
	<path d="M95.6,17.7c-1.6,0-2.9-0.9-2.9-3.4c0-2.1,1.3-3.3,2.9-3.3h1.9c0.1,0,0.1,0,0.1,0.1l-0.1,0.7c0,0.1-0.1,0.1-0.2,0.1
		c-0.6-0.2-0.8-0.3-1.8-0.3s-1.5,1-1.5,2.8c0,2.2,0.9,2.8,1.9,2.8c0.5,0,1-0.3,1.4-0.7h0.1l0.3,0.3v0.1
		C97.2,17.4,96.4,17.7,95.6,17.7z"/>
	<path d="M103.5,17.6h-4.1c-0.1,0-0.1,0-0.1-0.1v-3.2v-3.2c0-0.1,0-0.1,0.1-0.1h4c0.1,0,0.2,0,0.2,0.1v0.5c0,0.1-0.1,0.1-0.2,0.1
		c0,0-1.2-0.2-1.7-0.2h-0.9c-0.1,0-0.3,0.1-0.3,0.3v2c0,0,0,0.1,0.1,0.1l2-0.1c0.1,0,0.1,0,0.1,0.1v0.5c0,0.1-0.1,0.1-0.1,0.1
		l-2-0.1c0,0-0.1,0-0.1,0.1v2.3c0,0.1,0.1,0.3,0.3,0.3h0.9c0.6,0,1.9-0.2,1.9-0.2c0.1,0,0.2,0,0.2,0.1v0.6
		C103.7,17.6,103.6,17.6,103.5,17.6z"/>
	<path d="M110.5,15.8v1.8c0,0.2-0.6,0.2-0.6,0.1l-3.5-4.8c-0.1-0.1-0.1,0-0.1,0l0.1,4.5c0,0.1,0,0.2-0.1,0.2h-0.8
		c-0.1,0-0.1-0.1-0.1-0.2l0.1-4.7v-1.6c0-0.1,0-0.1,0.1-0.1h0.6c0.1,0,0.2,0,0.2,0.1l3.1,4.3c0.1,0.1,0.2,0.1,0.2,0l-0.1-4.1
		c0-0.1,0-0.2,0.1-0.2h0.7c0.1,0,0.1,0.1,0.1,0.2L110.5,15.8z"/>
	<path d="M117.3,11.6c0,0.1-0.1,0.1-0.1,0.1s-1.1-0.1-1.7-0.1c-0.1,0-0.2,0.1-0.2,0.2v2.6v3.2c0,0.1,0,0.1-0.1,0.1h-1
		c-0.1,0-0.1,0-0.1-0.1v-3.2v-2.6c0-0.1-0.1-0.2-0.2-0.2c-0.6,0-1.7,0.1-1.7,0.1c-0.1,0-0.1,0-0.1-0.1v-0.5c0-0.1,0.1-0.1,0.2-0.1
		h4.9c0.1,0,0.2,0,0.2,0.1L117.3,11.6z"/>
	<path d="M123.1,17.6H119c-0.1,0-0.1,0-0.1-0.1v-3.2v-3.2c0-0.1,0-0.1,0.1-0.1h4c0.1,0,0.2,0,0.2,0.1v0.5c0,0.1-0.1,0.1-0.2,0.1
		c0,0-1.2-0.2-1.7-0.2h-0.9c-0.1,0-0.3,0.1-0.3,0.3v2c0,0,0,0.1,0.1,0.1l2-0.1c0.1,0,0.1,0,0.1,0.1v0.5c0,0.1-0.1,0.1-0.1,0.1
		l-2-0.1c0,0-0.1,0-0.1,0.1v2.3c0,0.1,0.1,0.3,0.3,0.3h0.9c0.6,0,1.9-0.2,1.9-0.2c0.1,0,0.2,0,0.2,0.1v0.6
		C123.3,17.6,123.2,17.6,123.1,17.6z"/>
	<path d="M130.1,17.6h-1.2c-0.1,0-0.1-0.1-0.2-0.1l-1.4-2.5c-0.2-0.3-0.4-0.4-0.6-0.4h-0.4c-0.1,0-0.2,0.1-0.2,0.2v2.8
		c0,0.1,0,0.1-0.1,0.1h-1c-0.1,0-0.1,0-0.1-0.1v-3.2v-3.2c0-0.1,0-0.1,0.1-0.1h2.9c1,0,1.8,0.7,1.8,1.6s-0.7,1.6-1.6,1.8
		c-0.1,0-0.1,0.1,0,0.1c0.1,0.1,0.2,0.2,0.4,0.5l1.5,2.1l0.3,0.4C130.2,17.6,130.2,17.6,130.1,17.6z M127.1,11.4h-0.7
		c-0.1,0-0.3,0.1-0.3,0.3v2.2c0,0.1,0.1,0.2,0.2,0.2h0.4c1,0,1.6-0.4,1.6-1.4C128.3,11.9,127.8,11.4,127.1,11.4z"/>
	<path d="M139,11.7c0,0-1.3-0.2-1.7-0.2h-0.8c-0.1,0-0.3,0.1-0.3,0.3v2c0,0,0,0.1,0.1,0.1l1.9-0.1c0.1,0,0.1,0,0.1,0.1v0.5
		c0,0.1-0.1,0.1-0.1,0.1l-1.9-0.1c0,0-0.1,0-0.1,0.1v3c0,0.1,0,0.1-0.1,0.1h-1c-0.1,0-0.1,0-0.1-0.1v-3.2v-3.2c0-0.1,0-0.1,0.1-0.1
		h3.9c0.1,0,0.2,0,0.2,0.1v0.5C139.2,11.7,139.1,11.7,139,11.7z"/>
	<path d="M143.1,17.8c-2.2,0-2.9-1.7-2.9-3.5s0.7-3.5,2.9-3.5s2.9,1.7,2.9,3.5C146,16,145.3,17.8,143.1,17.8z M143.1,11.3
		c-1.3,0-1.5,1.6-1.5,2.9c0,1.2,0.1,3.2,1.6,3.2c1.3,0,1.5-1.6,1.5-2.9C144.7,13.2,144.6,11.3,143.1,11.3z"/>
	<path d="M153.1,17.6h-1.2c-0.1,0-0.1-0.1-0.2-0.1l-1.4-2.5c-0.2-0.3-0.4-0.4-0.6-0.4h-0.4c-0.1,0-0.2,0.1-0.2,0.2v2.8
		c0,0.1,0,0.1-0.1,0.1h-1c-0.1,0-0.1,0-0.1-0.1v-3.2v-3.2c0-0.1,0-0.1,0.1-0.1h2.9c1,0,1.8,0.7,1.8,1.6s-0.7,1.6-1.6,1.8
		c-0.1,0-0.1,0.1,0,0.1c0.1,0.1,0.2,0.2,0.4,0.5l1.5,2.1l0.3,0.4C153.2,17.6,153.2,17.6,153.1,17.6z M150.1,11.4h-0.7
		c-0.1,0-0.3,0.1-0.3,0.3v2.2c0,0.1,0.1,0.2,0.2,0.2h0.4c1,0,1.6-0.4,1.6-1.4C151.3,11.9,150.8,11.4,150.1,11.4z"/>
	<path d="M160.1,17.7c-1,0-1.7-0.2-2.3-0.5c-0.1,0-0.1-0.1-0.1-0.2l0.2-0.7c0-0.1,0.1-0.1,0.2,0c0.5,0.5,1.2,0.9,2,0.9
		c0.6,0,1.3-0.5,1.3-1.1c0-1.7-3.7-1-3.7-3.5c0-1.1,0.8-1.8,2-1.8c1,0,1.8,0.2,2.3,0.2c0.1,0,0.1,0.1,0.1,0.1l-0.2,0.7
		c0,0.1-0.1,0.1-0.2,0.1c-0.5-0.3-1-0.6-2-0.6c-0.5,0-1,0.3-1,0.9c0,1.8,3.7,0.9,3.7,3.7C162.5,17.2,161.4,17.7,160.1,17.7z"/>
	<path d="M168.9,11.6c0,0.1-0.1,0.1-0.1,0.1s-1.1-0.1-1.7-0.1c-0.1,0-0.2,0.1-0.2,0.2v2.6v3.2c0,0.1,0,0.1-0.1,0.1h-1
		c-0.1,0-0.1,0-0.1-0.1v-3.2v-2.6c0-0.1-0.1-0.2-0.2-0.2c-0.6,0-1.7,0.1-1.7,0.1c-0.1,0-0.1,0-0.1-0.1v-0.5c0-0.1,0.1-0.1,0.2-0.1
		h4.9c0.1,0,0.2,0,0.2,0.1L168.9,11.6z"/>
	<path d="M175.7,17.6h-1.2c-0.1,0-0.1-0.1-0.2-0.1l-1.4-2.5c-0.2-0.3-0.4-0.4-0.6-0.4h-0.4c-0.1,0-0.2,0.1-0.2,0.2v2.8
		c0,0.1,0,0.1-0.1,0.1h-1c-0.1,0-0.1,0-0.1-0.1v-3.2v-3.2c0-0.1,0-0.1,0.1-0.1h2.9c1,0,1.8,0.7,1.8,1.6s-0.7,1.6-1.6,1.8
		c-0.1,0-0.1,0.1,0,0.1c0.1,0.1,0.2,0.2,0.4,0.5l1.5,2.1l0.3,0.4C175.9,17.6,175.8,17.6,175.7,17.6z M172.7,11.4H172
		c-0.1,0-0.3,0.1-0.3,0.3v2.2c0,0.1,0.1,0.2,0.2,0.2h0.4c1,0,1.6-0.4,1.6-1.4C173.9,11.9,173.4,11.4,172.7,11.4z"/>
	<path d="M183,17.6h-1.2c-0.1,0-0.2,0-0.2-0.1c0,0-0.2-0.5-0.3-0.8l-0.4-0.9c0-0.1-0.1-0.1-0.1-0.1h-2.1c-0.1,0-0.1,0-0.1,0.1
		l-0.5,1.7c0,0.1-0.1,0.1-0.2,0.1h-0.8c-0.1,0-0.1-0.1-0.1-0.2l2.5-6.4c0-0.1,0.8-0.1,0.8,0l2.3,5.7c0.1,0.3,0.4,0.7,0.4,0.7
		C183.1,17.6,183.1,17.6,183,17.6z M179.8,12.7c0-0.1-0.1-0.1-0.1,0l-0.9,2.5c0,0.1,0,0.1,0.1,0.1h1.7c0.1,0,0.1-0.1,0.1-0.1
		L179.8,12.7z"/>
	<path d="M188.5,11.6c0,0.1-0.1,0.1-0.1,0.1s-1.1-0.1-1.7-0.1c-0.1,0-0.2,0.1-0.2,0.2v2.6v3.2c0,0.1,0,0.1-0.1,0.1h-1
		c-0.1,0-0.1,0-0.1-0.1v-3.2v-2.6c0-0.1-0.1-0.2-0.2-0.2c-0.6,0-1.7,0.1-1.7,0.1c-0.1,0-0.1,0-0.1-0.1v-0.5c0-0.1,0.1-0.1,0.2-0.1
		h4.9c0.1,0,0.2,0,0.2,0.1L188.5,11.6z"/>
	<path d="M194.4,17.6h-4.1c-0.1,0-0.1,0-0.1-0.1v-3.2v-3.2c0-0.1,0-0.1,0.1-0.1h4c0.1,0,0.2,0,0.2,0.1v0.5c0,0.1-0.1,0.1-0.2,0.1
		c0,0-1.2-0.2-1.7-0.2h-0.9c-0.1,0-0.3,0.1-0.3,0.3v2c0,0,0,0.1,0.1,0.1l2-0.1c0.1,0,0.1,0,0.1,0.1v0.5c0,0.1-0.1,0.1-0.1,0.1
		l-2-0.1c0,0-0.1,0-0.1,0.1v2.3c0,0.1,0.1,0.3,0.3,0.3h0.9c0.6,0,1.9-0.2,1.9-0.2c0.1,0,0.2,0,0.2,0.1v0.6
		C194.5,17.6,194.4,17.6,194.4,17.6z"/>
	<path d="M201,17.6c-0.1,0-0.4-0.3-0.4-0.3c-0.1,0-0.1,0-0.2,0c-0.4,0.2-1,0.4-1.7,0.4c-1.6,0-2.9-0.9-2.9-3.4
		c0-2.1,1.3-3.3,2.9-3.3h1.9c0.1,0,0.1,0,0.1,0.1l-0.1,0.7c0,0.1-0.1,0.1-0.2,0.1c-0.6-0.2-0.8-0.3-1.8-0.3s-1.5,1-1.5,2.8
		c0,2.2,0.9,2.9,1.9,2.9c0.4,0,1-0.3,1-0.7c0-0.1-0.1-1.8-0.1-1.8s0-0.2,0-0.3c0-0.1,0.1-0.2,0.1-0.2h1c0,0,0.1,0,0.1,0.1v3.2
		C201.1,17.6,201,17.6,201,17.6z"/>
	<path d="M204.2,17.6h-1c-0.1,0-0.1,0-0.1-0.1v-3.2v-3.2c0-0.1,0-0.1,0.1-0.1h1c0.1,0,0.1,0,0.1,0.1v3.2v3.2
		C204.3,17.6,204.3,17.6,204.2,17.6z"/>
	<path d="M209.1,17.7c-1.6,0-2.9-0.9-2.9-3.4c0-2.1,1.3-3.3,2.9-3.3h1.9c0.1,0,0.1,0,0.1,0.1l-0.1,0.7c0,0.1-0.1,0.1-0.2,0.1
		c-0.6-0.2-0.8-0.3-1.8-0.3s-1.5,1-1.5,2.8c0,2.2,0.9,2.8,1.9,2.8c0.5,0,1-0.3,1.4-0.7h0.1l0.3,0.3v0.1
		C210.7,17.4,209.9,17.7,209.1,17.7z"/>
	<path d="M219.8,15H219v2.5c0,0.1-0.1,0.1-0.1,0.1h-2.5c-1.2,0-1.8-0.8-1.8-1.5s0.5-1.3,1.3-1.5c-0.5-0.2-0.8-0.7-0.8-1.2
		c0-0.9,0.7-1.4,1.7-1.4h1c0.1,0,0.2,0,0.2,0.1v0.4c0,0.1-0.1,0.1-0.1,0.1s-0.4-0.2-0.6-0.2c-0.5,0-0.9,0.3-0.9,1
		c0,0.6,0.4,1.1,1,1.1h0.8v-0.7c0-0.1,0.1-0.1,0.1-0.1l0.8,0.1c0.1,0,0.1,0,0.1,0.1v0.6h0.8c0.1,0,0.1,0,0.1,0.1v0.3
		C219.9,14.9,219.9,15,219.8,15z M218,14.9h-1c-0.7,0-1,0.5-1,1.1s0.4,1.2,0.9,1.2s0.8,0,1.1-0.1V14.9z"/>
	<path d="M94,30.5h-1c-0.1,0-0.1,0-0.1-0.1v-3.2V24c0-0.1,0-0.1,0.1-0.1h1c0.1,0,0.1,0,0.1,0.1v3.2L94,30.5
		C94.1,30.5,94.1,30.5,94,30.5z"/>
	<path d="M101.3,28.7v1.8c0,0.2-0.6,0.2-0.6,0.1l-3.5-4.8c-0.1-0.1-0.1,0-0.1,0l0.1,4.5c0,0.1,0,0.2-0.1,0.2h-0.8
		c-0.1,0-0.1-0.1-0.1-0.2l0.1-4.7V24c0-0.1,0-0.1,0.1-0.1H97c0.1,0,0.2,0,0.2,0.1l3.1,4.3c0.1,0.1,0.2,0.1,0.2,0l-0.1-4.1
		c0-0.1,0-0.2,0.1-0.2h0.7c0.1,0,0.1,0.1,0.1,0.2L101.3,28.7z"/>
	<path d="M108.1,24.5C108.1,24.6,108,24.6,108.1,24.5c-0.1,0.1-1.2,0-1.8,0c-0.1,0-0.2,0.1-0.2,0.2v2.6v3.2c0,0.1,0,0.1-0.1,0.1h-1
		c-0.1,0-0.1,0-0.1-0.1v-3.2v-2.6c0-0.1-0.1-0.2-0.2-0.2c-0.6,0-1.7,0.1-1.7,0.1c-0.1,0-0.1,0-0.1-0.1V24c0-0.1,0.1-0.1,0.2-0.1h4.9
		c0.1,0,0.2,0,0.2,0.1L108.1,24.5z"/>
	<path d="M114,30.5h-4.1c-0.1,0-0.1,0-0.1-0.1v-3.2V24c0-0.1,0-0.1,0.1-0.1h4c0.1,0,0.2,0,0.2,0.1v0.5c0,0.1-0.1,0.1-0.2,0.1
		c0,0-1.2-0.2-1.7-0.2h-0.9c-0.1,0-0.3,0.1-0.3,0.3v2c0,0,0,0.1,0.1,0.1l2-0.1c0.1,0,0.1,0,0.1,0.1v0.5c0,0.1-0.1,0.1-0.1,0.1
		l-2-0.1c0,0-0.1,0-0.1,0.1v2.3c0,0.1,0.1,0.3,0.3,0.3h0.9c0.6,0,1.9-0.2,1.9-0.2c0.1,0,0.2,0,0.2,0.1v0.6
		C114.1,30.5,114.1,30.5,114,30.5z"/>
	<path d="M121,30.5h-1.2c-0.1,0-0.1-0.1-0.2-0.1l-1.4-2.5c-0.2-0.3-0.4-0.4-0.6-0.4h-0.4c-0.1,0-0.2,0.1-0.2,0.2v2.8
		c0,0.1,0,0.1-0.1,0.1h-1c-0.1,0-0.1,0-0.1-0.1v-3.2v-3.2c0-0.1,0-0.1,0.1-0.1h2.9c1,0,1.8,0.7,1.8,1.6c0,0.9-0.7,1.6-1.6,1.8
		c-0.1,0-0.1,0.1,0,0.1c0.1,0.1,0.2,0.2,0.4,0.5l1.5,2.1l0.3,0.4C121.1,30.4,121,30.5,121,30.5z M118,24.3h-0.7
		c-0.1,0-0.3,0.1-0.3,0.3v2.2c0,0.1,0.1,0.2,0.2,0.2h0.4c1,0,1.6-0.4,1.6-1.4C119.1,24.8,118.7,24.3,118,24.3z"/>
	<path d="M127.8,28.7v1.8c0,0.2-0.6,0.2-0.6,0.1l-3.5-4.8c-0.1-0.1-0.1,0-0.1,0l0.1,4.5c0,0.1,0,0.2-0.1,0.2h-0.8
		c-0.1,0-0.1-0.1-0.1-0.2l0.1-4.7V24c0-0.1,0-0.1,0.1-0.1h0.6c0.1,0,0.2,0,0.2,0.1l3.1,4.3c0.1,0.1,0.2,0.1,0.2,0l-0.1-4.1
		c0-0.1,0-0.2,0.1-0.2h0.7c0.1,0,0.1,0.1,0.1,0.2V28.7z"/>
	<path d="M135.2,30.5H134c-0.1,0-0.2,0-0.2-0.1c0,0-0.2-0.5-0.3-0.8l-0.4-0.9c0-0.1-0.1-0.1-0.1-0.1h-2.1c-0.1,0-0.1,0-0.1,0.1
		l-0.5,1.7c0,0.1-0.1,0.1-0.2,0.1h-0.8c-0.1,0-0.1-0.1-0.1-0.2l2.5-6.4c0-0.1,0.8-0.1,0.8,0l2.3,5.7c0.1,0.3,0.4,0.7,0.4,0.7
		C135.4,30.5,135.3,30.5,135.2,30.5z M132.1,25.6c0-0.1-0.1-0.1-0.1,0l-0.9,2.5c0,0.1,0,0.1,0.1,0.1h1.7c0.1,0,0.1-0.1,0.1-0.1
		L132.1,25.6z"/>
	<path d="M140.8,24.5c0,0.1-0.1,0.1-0.1,0.1s-1.1-0.1-1.7-0.1c-0.1,0-0.2,0.1-0.2,0.2v2.6v3.2c0,0.1,0,0.1-0.1,0.1h-1
		c-0.1,0-0.1,0-0.1-0.1v-3.2v-2.6c0-0.1-0.1-0.2-0.2-0.2c-0.6,0-1.7,0.1-1.7,0.1c-0.1,0-0.1,0-0.1-0.1V24c0-0.1,0.1-0.1,0.2-0.1h4.9
		c0.1,0,0.2,0,0.2,0.1L140.8,24.5z"/>
	<path d="M143.5,30.5h-1c-0.1,0-0.1,0-0.1-0.1v-3.2V24c0-0.1,0-0.1,0.1-0.1h1c0.1,0,0.1,0,0.1,0.1v3.2v3.2
		C143.6,30.5,143.6,30.5,143.5,30.5z"/>
	<path d="M148.3,30.7c-2.2,0-2.9-1.7-2.9-3.5s0.7-3.5,2.9-3.5s2.9,1.7,2.9,3.5C151.2,28.9,150.5,30.7,148.3,30.7z M148.3,24.2
		c-1.3,0-1.5,1.6-1.5,2.9c0,1.2,0.1,3.2,1.6,3.2c1.3,0,1.5-1.6,1.5-2.9C149.9,26.1,149.8,24.2,148.3,24.2z"/>
	<path d="M158.2,28.7v1.8c0,0.2-0.6,0.2-0.6,0.1l-3.5-4.8c-0.1-0.1-0.1,0-0.1,0l0.1,4.5c0,0.1,0,0.2-0.1,0.2h-0.8
		c-0.1,0-0.1-0.1-0.1-0.2l0.1-4.7V24c0-0.1,0-0.1,0.1-0.1h0.6c0.1,0,0.2,0,0.2,0.1l3.1,4.3c0.1,0.1,0.2,0.1,0.2,0l-0.1-4.1
		c0-0.1,0-0.2,0.1-0.2h0.7c0.1,0,0.1,0.1,0.1,0.2V28.7z"/>
	<path d="M165.7,30.5h-1.2c-0.1,0-0.2,0-0.2-0.1c0,0-0.2-0.5-0.3-0.8l-0.4-0.9c0-0.1-0.1-0.1-0.1-0.1h-2.1c-0.1,0-0.1,0-0.1,0.1
		l-0.5,1.7c0,0.1-0.1,0.1-0.2,0.1h-0.8c-0.1,0-0.1-0.1-0.1-0.2l2.5-6.4c0-0.1,0.8-0.1,0.8,0l2.3,5.7c0.1,0.3,0.4,0.7,0.4,0.7
		C165.8,30.5,165.8,30.5,165.7,30.5z M162.5,25.6c0-0.1-0.1-0.1-0.1,0l-0.9,2.5c0,0.1,0,0.1,0.1,0.1h1.7c0.1,0,0.1-0.1,0.1-0.1
		L162.5,25.6z"/>
	<path d="M171.2,30.5h-3.8c-0.1,0-0.1,0-0.1-0.1v-3.2V24c0-0.1,0-0.1,0.1-0.1h1c0.1,0,0.1,0,0.1,0.1v3.2v2.5c0,0.1,0.1,0.3,0.3,0.3
		h0.8c0.6,0,1.7-0.2,1.7-0.2c0.1,0,0.2,0,0.2,0.1v0.6C171.4,30.5,171.3,30.5,171.2,30.5z"/>
	<path d="M178.3,30.6c-1,0-1.7-0.2-2.3-0.5c-0.1,0-0.1-0.1-0.1-0.2l0.2-0.7c0-0.1,0.1-0.1,0.2,0c0.5,0.5,1.2,0.9,2,0.9
		c0.6,0,1.3-0.5,1.3-1.1c0-1.7-3.7-1-3.7-3.5c0-1.1,0.8-1.8,2-1.8c1,0,1.8,0.2,2.3,0.2c0.1,0,0.1,0.1,0.1,0.1l-0.2,0.7
		c0,0.1-0.1,0.1-0.2,0.1c-0.5-0.3-1-0.6-2-0.6c-0.5,0-1,0.3-1,0.9c0,1.8,3.7,0.9,3.7,3.7C180.7,30.1,179.7,30.6,178.3,30.6z"/>
	<path d="M187.1,24.5c0,0.1-0.1,0.1-0.1,0.1s-1.1-0.1-1.7-0.1c-0.1,0-0.2,0.1-0.2,0.2v2.6v3.2c0,0.1,0,0.1-0.1,0.1h-1
		c-0.1,0-0.1,0-0.1-0.1v-3.2v-2.6c0-0.1-0.1-0.2-0.2-0.2c-0.6,0-1.7,0.1-1.7,0.1c-0.1,0-0.1,0-0.1-0.1V24c0-0.1,0.1-0.1,0.2-0.1h4.9
		c0.1,0,0.2,0,0.2,0.1L187.1,24.5z"/>
	<path d="M193.8,24.8l-0.1,3.7c0,1.4-0.8,2.2-2.3,2.2c-1.7,0-2.6-0.7-2.6-2.2v-3.8V24c0-0.1,0-0.1,0.1-0.1h1c0.1,0,0.1,0,0.1,0.1
		v0.7v3.7c0,1,0.7,1.6,1.4,1.6s1.4-0.4,1.4-1.5v-3.7c0-0.3,0-0.8,0-0.8c0-0.1,0-0.2,0.1-0.2h0.9c0.1,0,0.1,0.1,0.1,0.2
		C193.8,24,193.8,24.5,193.8,24.8z"/>
	<path d="M198,30.5c-1.2,0-1.3-0.1-1.6-0.1s-0.3,0.1-0.5,0.1c-0.1,0-0.1,0-0.1-0.1v-3.2V24c0-0.1,0-0.1,0.1-0.1h2.4
		c1.4,0,2.7,1.1,2.7,3.2C201,28.9,199.9,30.5,198,30.5z M198,24.3h-0.7c-0.1,0-0.2,0.1-0.2,0.2v2.6v2.3c0,0.4,0.3,0.6,0.8,0.6
		c1.6,0,1.8-1.9,1.8-3.1C199.7,25,198.8,24.3,198,24.3z"/>
	<path d="M203.9,30.5h-1c-0.1,0-0.1,0-0.1-0.1v-3.2V24c0-0.1,0-0.1,0.1-0.1h1c0.1,0,0.1,0,0.1,0.1v3.2v3.2
		C204.1,30.5,204,30.5,203.9,30.5z"/>
	<path d="M210.4,30.5h-4.1c-0.1,0-0.1,0-0.1-0.1v-3.2V24c0-0.1,0-0.1,0.1-0.1h4c0.1,0,0.2,0,0.2,0.1v0.5c0,0.1-0.1,0.1-0.2,0.1
		c0,0-1.2-0.2-1.7-0.2h-0.9c-0.1,0-0.3,0.1-0.3,0.3v2c0,0,0,0.1,0.1,0.1l2-0.1c0.1,0,0.1,0,0.1,0.1v0.5c0,0.1-0.1,0.1-0.1,0.1
		l-2-0.1c0,0-0.1,0-0.1,0.1v2.3c0,0.1,0.1,0.3,0.3,0.3h0.9c0.6,0,1.9-0.2,1.9-0.2c0.1,0,0.2,0,0.2,0.1v0.6
		C210.6,30.5,210.5,30.5,210.4,30.5z"/>
	<path d="M214.4,30.6c-1,0-1.7-0.2-2.3-0.5c-0.1,0-0.1-0.1-0.1-0.2l0.2-0.7c0-0.1,0.1-0.1,0.2,0c0.5,0.5,1.2,0.9,2,0.9
		c0.6,0,1.3-0.5,1.3-1.1c0-1.7-3.7-1-3.7-3.5c0-1.1,0.8-1.8,2-1.8c1,0,1.8,0.2,2.3,0.2c0.1,0,0.1,0.1,0.1,0.1l-0.2,0.7
		c0,0.1-0.1,0.1-0.2,0.1c-0.5-0.3-1-0.6-2-0.6c-0.5,0-1,0.3-1,0.9c0,1.8,3.7,0.9,3.7,3.7C216.8,30.1,215.8,30.6,214.4,30.6z"/>
</g>
</svg>
