<svg xmlns="http://www.w3.org/2000/svg" viewBox="0 0 967 474"><title>Asset 5</title><g id="Layer_2" data-name="Layer 2"><g id="Layer_1-2" data-name="Layer 1"><path d="M234.9,255.2l25.45-1.39c2.9-10,2.27-19-8.19-19C241.08,234.78,235,245.24,234.9,255.2Z" fill="#fff"/><path d="M176.81,98.33c-11.09,0-17.14,10.46-17.26,20.41L185,117.36C187.9,107.4,187.27,98.33,176.81,98.33Z" fill="#fff"/><path d="M254.47,415.34c.38,5.42,2,10.46,7.06,10.46a23.54,23.54,0,0,0,14.36-5.67V405C262.41,406.14,254.47,406,254.47,415.34Z" fill="#fff"/><path d="M238.3,153.9c15.37,0,17.26-20.41,17.26-30.12,0-10.58-4.66-23.94-16.13-23.94-7.43,0-14.49,6.17-14.49,12.35v30C225.07,146.84,226.46,153.9,238.3,153.9Z" fill="#fff"/><path d="M416.35,278.89c.38,5.42,2,10.46,7.06,10.46a23.55,23.55,0,0,0,14.36-5.67V268.55C424.29,269.69,416.35,269.56,416.35,278.89Z" fill="#fff"/><polygon points="92.67 399.46 125.06 399.46 109.05 356.25 92.67 399.46" fill="#fff"/><path d="M302.95,98.33c-12.47,0-16.38,12.47-16.38,27.85S290.47,154,302.95,154s16.51-12.47,16.51-27.85S315.42,98.33,302.95,98.33Z" fill="#fff"/><path d="M119.48,91c0-11.21-8.57-18.65-27.22-18.65H88V116.1h7.56C111,111.68,119.48,103,119.48,91Z" fill="#fff"/><path d="M566.18,234.78c-12.47,0-16.38,12.47-16.38,27.85s3.91,27.85,16.38,27.85,16.51-12.47,16.51-27.85S578.65,234.78,566.18,234.78Z" fill="#fff"/><path d="M659,154c12.47,0,16.51-12.47,16.51-27.85s-4-27.85-16.51-27.85-16.38,12.47-16.38,27.85S646.57,154,659,154Z" fill="#fff"/><path d="M564.41,183.89c14.49,0,19.91-10.08,19.91-17.39,0-7.06-20.54-3.53-32.76-7.81-2.65,3.65-4.79,8.57-4.79,13.23C546.77,178.34,551.06,183.89,564.41,183.89Z" fill="#fff"/><path d="M685.88,278.89c.38,5.42,2,10.46,7.06,10.46a23.55,23.55,0,0,0,14.36-5.67V268.55C693.82,269.69,685.88,269.56,685.88,278.89Z" fill="#fff"/><path d="M0,0V474H967V0ZM659.55,94.67c16.51,0,26.46,14.11,26.46,31.5s-11,31.5-27.47,31.5-26.34-14.11-26.34-31.5S643,94.67,659.55,94.67Zm-213-26.46a39.4,39.4,0,0,1,8.32,8.19,34.75,34.75,0,0,1-8.32,8.32,34.75,34.75,0,0,1-8.32-8.32A39.4,39.4,0,0,1,446.59,68.21ZM338.73,153.9c9.32,0,10.08-1.76,10.08-11.09V110.17c0-9.32-.13-11.09-9.45-11.09V96.56l19.78-1.26-.38,14.87C364.19,100.72,373,93,380.82,94.93c1.26.38,7.18,4-1.64,12.22-4.28-2.65-12.47-5.29-20.41,7.18v28.48c0,9.32,1.26,11.09,12.47,11.09v2.52H338.73Zm-6.3,136.46c9.32,0,10.08-1.76,10.08-11.09V246.63c0-9.32-.13-11.09-9.45-11.09V233l19.78-1.26-.38,13c5.67-8.32,16.51-13.61,24.32-13.61,7.18,0,13,4.54,13,15.25v32.89c0,9.32.88,11.09,10.08,11.09v2.52H370.74v-2.52c8.32,0,9.07-1.76,9.07-11.09V249.53c0-8.32-3.91-12.35-8.95-12.35-5.29,0-13.23,4.41-18.4,12.85v29.23c0,9.32.76,11.09,9.2,11.09v2.52H332.43Zm-61.62-33.52-36.16,2c-1.76,27.34,17.77,35.53,35.79,23.06l1.26,2.27c-22.55,20.16-47.13,7.81-47.13-21.55,0-20,14.11-31.5,27.6-31.5C261.87,231.13,276.11,237.43,270.81,256.84Zm-65.27-73.58c10.08,0,9.45-2.14,9.45-11V110.17c0-9.32-.13-11.09-9.45-11.09V96.56l19.78-1.26-.38,9.45c4.54-5.8,10.46-10.08,19.53-10.08,12.1,0,21.55,11.47,21.55,29.11,0,25.71-14.74,33.9-27.09,33.9a31.43,31.43,0,0,1-14-3.15v17.77c0,8.82-.5,11,11.34,11v2.52H205.54Zm-6.43,34.39v14.74h16.25v4.16H199.12v37c0,15.75,6.8,18.65,19.15,13.48l1.26,2.27c-29.11,14.74-30.37-8.69-30.37-13.1V236.55H181.6V233c10,0,13.23-4.66,16.25-15.37Zm-22.3-123c9.7,0,23.94,6.3,18.65,25.71l-36.16,2c-1.76,27.34,17.77,35.53,35.79,23.06l1.26,2.27c-22.55,20.16-47.13,7.81-47.13-21.55C149.22,106.14,163.33,94.67,176.81,94.67Zm-29.24,142.5c-5.29,0-13.23,4.41-18.4,12.85v29.23c0,9.32.76,11.09,9.2,11.09v2.52H109.15v-2.52c9.32,0,10.08-1.76,10.08-11.09V246.63c0-9.32-.13-11.09-9.45-11.09V233l19.78-1.26-.38,13c5.67-8.32,16.51-13.61,24.32-13.61,7.18,0,13,4.54,13,15.25v32.89c0,9.32.88,11.09,10.08,11.09v2.52H147.45v-2.52c8.32,0,9.07-1.76,9.07-11.09V249.53C156.52,241.21,152.62,237.18,147.58,237.18ZM65.3,153.9c11.09,0,12.35-2.65,12.35-11.59v-60c0-8.32-.38-11.59-12.35-11.59V68.21H94.78c26.08,0,35.91,10,35.91,21.93,0,11.09-9.58,21.29-23.44,26.21l26.08,29c6.3,7.31,10,8.57,14.62,8.57v2.52H127.79a72.19,72.19,0,0,0-7.43-10.84L97.3,119.88H88V142.3c0,8.95,1.89,11.59,14.87,11.59v2.52H65.3Zm0,136.46c11.09,0,12.35-2.65,12.35-11.59v-60c0-8.32-.38-11.59-12.35-11.59v-2.52h35v2.52c-12,0-12.35,3.28-12.35,11.59v60c0,8.95,1.26,11.59,12.35,11.59v2.52h-35Zm90.86,139H121.51v-2.52c10.84,0,11.72-3.15,8.82-11.59L126,403.62H90.51L86.1,415.22c-2.65,7.56-.5,11.59,9.83,11.59v2.52H65.43v-2.52c9.32,0,11.59-2.65,15.25-11.59l29.61-75.35h1.51l29.49,75.35c3.53,8.95,5.67,11.59,14.87,11.59Zm80.77-80.27c-1.76-1.39-4.91-4.28-7.81-4.28-3.53,0-6.68,4.16-6.68,24.07H236.8V373H222.44v42.72c0,9.32,1.13,11.09,12.6,11.09v2.52H201.77v-2.52c9.45,0,10.71-1.76,10.71-11.09V373H181.86v42.72c0,9.32,1.13,11.09,12.6,11.09v2.52H161.2v-2.52c9.45,0,10.71-1.76,10.71-11.09V373h-9.45v-4.16h9.45v-2.27c0-15.75,14.49-28,23.18-28,1.39,0,7.56.25,1.26,10.46-1.76-1.39-4.91-4.28-7.81-4.28-3.53,0-6.68,4.16-6.68,24.07h30.62v-2.27c0-15.75,14.49-28,23.18-28C237.05,338.6,243.23,338.86,236.93,349.06Zm47.63,81.52c-4.16,0-7.43-2-9.07-7.31-7.06,5.42-12.85,7.31-17.89,7.31-7.81,0-14-6.3-14-16.38,0-11.09,20.79-11.34,31.63-12v-20c0-6.68-2.14-11.09-8.69-11.09-10.58,0-13.1,9.07-11.34,14.24-10.21,6.3-10.08.25-10.08-1.13,0-8.69,14.74-16.63,25.2-16.63,13.73,0,15,7.43,15,12.85v39.82c0,2.9.76,8.32,7.94,5.54l1.26,2.27A25.16,25.16,0,0,1,284.56,430.59Zm44.23-1.26H299.56v-2.52c9.32,0,10.08-1.76,10.08-11.09V383.08c0-9.32-.13-11.09-9.45-11.09v-2.52L320,368.22l-.38,13v34.53c0,9.32.76,11.09,9.2,11.09Zm-22.93-80a39.4,39.4,0,0,1,8.32-8.19,39.41,39.41,0,0,1,8.32,8.19,34.75,34.75,0,0,1-8.32,8.32A34.76,34.76,0,0,1,305.86,349.31ZM321.34,243.6c-4.28-2.65-12.47-5.29-20.41,7.18v28.48c0,9.32,1.26,11.09,12.47,11.09v2.52H280.89v-2.52c9.32,0,10.08-1.76,10.08-11.09V246.63c0-9.32-.13-11.09-9.45-11.09V233l19.78-1.26-.38,14.87c5.42-9.45,14.24-17.14,22.05-15.25C324.24,231.76,330.16,235.41,321.34,243.6Zm-18.9-85.93c-16.51,0-26.33-14.11-26.33-31.5s10.84-31.5,27.34-31.5,26.46,14.11,26.46,31.5S318.95,157.68,302.44,157.68Zm71.84,222.38c-4.28-2.65-12.47-5.29-20.41,7.18v28.48c0,9.32,1.26,11.09,12.47,11.09v2.52H333.83v-2.52c9.32,0,10.08-1.76,10.08-11.09V383.08c0-9.32-.13-11.09-9.45-11.09v-2.52l19.78-1.26-.38,14.87c5.42-9.45,14.24-17.14,22.05-15.25C377.18,368.22,383.1,371.87,374.28,380.06Zm30,50.53c-6.43,0-13.61-1.89-17.64-5.42l.63-13.86h2.52c1.26,11.47,6.93,15.62,15.88,15.62,6.55,0,10.84-5.17,10.84-9.2,0-15.5-29.49-20.29-29.49-34.78,0-10.71,11.09-15.37,21.17-15.37,5.67,0,11.72,1.64,15.25,4l-.76,12.6h-2.52c.63-10.71-5.92-13-12.35-13-5.42,0-10.84,3.78-10.84,9.7,0,11.21,29.49,17.26,29.49,33C426.45,426.3,413.47,430.59,404.27,430.59ZM447.1,294.13c-4.16,0-7.43-2-9.07-7.31-7.06,5.42-12.85,7.31-17.89,7.31-7.81,0-14-6.3-14-16.38,0-11.09,20.79-11.34,31.63-12v-20c0-6.68-2.14-11.09-8.69-11.09-10.58,0-13.1,9.07-11.34,14.24-10.21,6.3-10.08.25-10.08-1.13,0-8.69,14.74-16.63,25.2-16.63,13.73,0,15,7.43,15,12.85V283.8c0,2.9.76,8.32,7.94,5.54l1.26,2.27A25.15,25.15,0,0,1,447.1,294.13Zm14.11-137.72H432V153.9c9.32,0,10.08-1.76,10.08-11.09V110.17c0-9.32-.13-10.08-9.45-10.08H407.78v37c0,15.75,6.8,18.65,19.15,13.48l1.26,2.27c-29.11,14.74-30.37-8.69-30.37-13.1V100.09h-7.56V96.56c10,0,13.23-4.66,16.25-15.37h1.26V95.93h44.61L452,108.28v34.53c0,9.32.76,11.09,9.2,11.09ZM533,292.87H503.8v-2.52c9.32,0,10.08-1.76,10.08-11.09V246.63c0-9.32-.13-10.08-9.45-10.08H479.61v37c0,15.75,6.8,18.65,19.15,13.48l1.26,2.27c-29.11,14.74-30.37-8.69-30.37-13.1V236.55h-7.56V233c10,0,13.23-4.66,16.25-15.37h1.26v14.74h44.61l-.38,12.35v34.53c0,9.32.76,11.09,9.2,11.09Zm-22.93-80a39.4,39.4,0,0,1,8.32-8.19,39.4,39.4,0,0,1,8.32,8.19,34.75,34.75,0,0,1-8.32,8.32A34.75,34.75,0,0,1,510.1,212.86Zm23.56-56.44H504.56V153.9c8.32,0,9.07-1.76,9.07-11.09V113.07c0-8.32-3.91-12.35-8.95-12.35-5.29,0-13.23,4.41-18.4,12.85v29.23c0,9.32.76,11.09,9.2,11.09v2.52H466.25V153.9c9.32,0,10.08-1.76,10.08-11.09V110.17c0-9.32-.13-11.09-9.45-11.09V96.56l19.78-1.26-.38,13C492,100,502.79,94.67,510.61,94.67c7.18,0,13,4.54,13,15.25v32.89c0,9.32.88,11.09,10.08,11.09Zm32,137.72c-16.51,0-26.33-14.11-26.33-31.5s10.84-31.5,27.34-31.5,26.46,14.11,26.46,31.5S582.18,294.13,565.67,294.13Zm23.69-176.78c0,12.47-10.84,22.68-24.44,22.68-8.19.25-16.88,2.14-16.88,5.17,0,13.1,46.24-1.13,46.24,21.29,0,13.48-17.51,20.54-33,20.54-12.47,0-23.81-4.66-23.81-14.11,0-4.91,4.54-10.33,11.59-15.25-3.91-1.89-6.55-4.91-6.55-10.08s5.17-8.06,12.85-9.32c-8.82-3.4-14.87-11.47-14.87-20.92,0-12.47,10.84-22.68,24.44-22.68a24.06,24.06,0,0,1,9.58,1.89c6.93.76,11.21-5,11.72-9.58,7.81-1,9.45.88,9.45,2.77,0,7.06-9.83,9.32-15.88,9.58A22.28,22.28,0,0,1,589.36,117.36Zm80,175.52H640.27v-2.52c8.32,0,9.07-1.76,9.07-11.09V249.53c0-8.32-3.91-12.35-8.95-12.35-5.29,0-13.23,4.41-18.4,12.85v29.23c0,9.32.76,11.09,9.2,11.09v2.52H602v-2.52c9.32,0,10.08-1.76,10.08-11.09V246.63c0-9.32-.13-11.09-9.45-11.09V233l19.78-1.26-.38,13c5.67-8.32,16.51-13.61,24.32-13.61,7.18,0,13,4.54,13,15.25v32.89c0,9.32.88,11.09,10.08,11.09Zm47.25,1.26c-4.16,0-7.43-2-9.07-7.31-7.06,5.42-12.85,7.31-17.89,7.31-7.81,0-14-6.3-14-16.38,0-11.09,20.79-11.34,31.63-12v-20c0-6.68-2.14-11.09-8.69-11.09-10.58,0-13.1,9.07-11.34,14.24-10.21,6.3-10.08.25-10.08-1.13,0-8.69,14.74-16.63,25.2-16.63,13.74,0,15,7.43,15,12.85V283.8c0,2.9.76,8.32,7.94,5.54l1.26,2.27A25.15,25.15,0,0,1,716.63,294.13Zm44.23-1.26H731.63v-2.52c9.32,0,10.08-1.76,10.08-11.09V217.65c0-9.32-.13-10.46-9.45-10.46v-2.52l19.4-1.26v75.85c0,9.32.76,11.09,9.2,11.09Zm1.38-136.46H733.14V153.9c8.32,0,9.07-1.76,9.07-11.09V113.07c0-8.32-3.91-12.35-8.95-12.35-5.29,0-13.23,4.41-18.4,12.85v29.23c0,9.32.76,11.09,9.2,11.09v2.52H694.83V153.9c9.32,0,10.08-1.76,10.08-11.09V110.17c0-9.32-.13-11.09-9.45-11.09V96.56l19.78-1.26-.38,13c5.67-8.32,16.51-13.61,24.32-13.61,7.18,0,13,4.54,13,15.25v32.89c0,9.32.88,11.09,10.08,11.09Z" fill="#fff"/><path d="M564.92,98.33c-9.58,0-14,9.2-14,19s3.91,19,14,19,14-9.2,14-19S574.49,98.33,564.92,98.33Z" fill="#fff"/></g></g></svg>