<svg xmlns="http://www.w3.org/2000/svg" viewBox="0 0 1380 562"><title>Asset 3</title><g id="Layer_2" data-name="Layer 2"><g id="Layer_1-2" data-name="Layer 1"><path d="M260.23,286.1l39-2.12c4.44-15.25,3.47-29.14-12.54-29.14C269.68,254.83,260.42,270.85,260.23,286.1Z" fill="#fff"/><path d="M171.26,45.83c-17,0-26.25,16-26.44,31.26l39-2.12C188.24,59.73,187.28,45.83,171.26,45.83Z" fill="#fff"/><path d="M290.2,531.38c.58,8.3,3.09,16,10.81,16,6.75,0,16-3.28,22-8.68V515.55C302.35,517.29,290.2,517.1,290.2,531.38Z" fill="#fff"/><path d="M265.44,130.94c23.55,0,26.44-31.26,26.44-46.13,0-16.21-7.14-36.67-24.7-36.67C255.79,48.15,245,57.6,245,67.06V113C245.17,120.13,247.3,130.94,265.44,130.94Z" fill="#fff"/><path d="M538.14,322.38c.58,8.3,3.09,16,10.81,16,6.75,0,16-3.28,22-8.68V306.55C550.3,308.29,538.14,308.1,538.14,322.38Z" fill="#fff"/><polygon points="42.39 507.06 91.98 507.06 67.47 440.87 42.39 507.06" fill="#fff"/><path d="M364.45,45.83c-19.11,0-25.09,19.11-25.09,42.65s6,42.65,25.09,42.65S389.73,112,389.73,88.48,383.55,45.83,364.45,45.83Z" fill="#fff"/><path d="M83.44,34.64c0-17.18-13.12-28.56-41.69-28.56H35.19V73H46.77C70.51,66.29,83.44,53,83.44,34.64Z" fill="#fff"/><path d="M767.62,254.83c-19.11,0-25.09,19.11-25.09,42.65s6,42.65,25.09,42.65S792.9,321,792.9,297.48,786.72,254.83,767.62,254.83Z" fill="#fff"/><path d="M909.86,131.13c19.11,0,25.28-19.11,25.28-42.65S929,45.83,909.86,45.83s-25.09,19.11-25.09,42.65S890.75,131.13,909.86,131.13Z" fill="#fff"/><path d="M764.92,176.87c22.19,0,30.49-15.44,30.49-26.63,0-10.81-31.46-5.4-50.18-12-4.05,5.6-7.33,13.12-7.33,20.26C737.9,168.38,744.46,176.87,764.92,176.87Z" fill="#fff"/><path d="M951,322.38c.58,8.3,3.09,16,10.81,16,6.75,0,16-3.28,22-8.68V306.55C963.13,308.29,951,308.1,951,322.38Z" fill="#fff"/><path d="M0,0V562H1380V0ZM910.63,43.23c25.28,0,40.53,21.62,40.53,48.25s-16.79,48.25-42.07,48.25-40.34-21.62-40.34-48.25S885.35,43.23,910.63,43.23ZM584.46,2.71A60.34,60.34,0,0,1,597.2,15.25,53.22,53.22,0,0,1,584.46,28a53.23,53.23,0,0,1-12.74-12.74A60.35,60.35,0,0,1,584.46,2.71ZM419.26,133.94c14.28,0,15.44-2.7,15.44-17V67c0-14.28-.19-17-14.47-17V46.13l30.3-1.93L449.94,67c8.3-14.47,21.81-26.25,33.77-23.35,1.93.58,11,6.18-2.51,18.72-6.56-4.05-19.11-8.11-31.27,11V117c0,14.28,1.93,17,19.11,17v3.86H419.26Zm-9.65,209c14.28,0,15.44-2.7,15.44-17V276c0-14.28-.19-17-14.47-17v-3.86l30.3-1.93-.58,19.88c8.69-12.74,25.28-20.84,37.25-20.84,11,0,19.88,6.95,19.88,23.35V326c0,14.28,1.35,17,15.44,17v3.86H468.28v-3.86c12.74,0,13.9-2.7,13.9-17V280.41c0-12.74-6-18.91-13.7-18.91-8.11,0-20.26,6.75-28.18,19.69V326c0,14.28,1.16,17,14.09,17v3.86H409.61Zm-94.38-51.34-55.39,3.09c-2.7,41.88,27.21,54.42,54.81,35.32l1.93,3.47c-34.55,30.88-72.18,12-72.18-33,0-30.69,21.62-48.25,42.27-48.25C301.53,252.23,323.34,261.88,315.23,291.61Zm-100-112.7c15.44,0,14.47-3.28,14.47-16.79V67c0-14.28-.19-17-14.47-17V46.13l30.3-1.93L245,58.67c6.95-8.88,16-15.44,29.91-15.44,18.53,0,33,17.56,33,44.58,0,39.37-22.58,51.92-41.49,51.92A48.14,48.14,0,0,1,245,134.91v27.21c0,13.51-.77,16.79,17.37,16.79v3.86H215.26Zm-9.84,52.68v22.58h24.9v6.37h-24.9v56.74c0,24.12,10.42,28.56,29.33,20.65l1.93,3.47c-44.58,22.58-46.51-13.32-46.51-20.07V260.53H178.59v-5.4c15.25,0,20.26-7.14,24.9-23.54ZM171.26,43.23c14.86,0,36.67,9.65,28.56,39.37l-55.39,3.09c-2.7,41.88,27.21,54.42,54.81,35.32l1.93,3.47c-34.55,30.88-72.18,12-72.18-33C129,60.8,150.61,43.23,171.26,43.23ZM126.48,261.5c-8.11,0-20.26,6.75-28.18,19.69V326c0,14.28,1.16,17,14.09,17v3.86H67.62v-3.86c14.28,0,15.44-2.7,15.44-17V276c0-14.28-.19-17-14.47-17v-3.86l30.3-1.93-.58,19.88c8.69-12.74,25.28-20.84,37.25-20.84,11,0,19.88,6.95,19.88,23.35V326c0,14.28,1.35,17,15.44,17v3.86H126.29v-3.86c12.74,0,13.9-2.7,13.9-17V280.41C140.18,267.67,134.2,261.5,126.48,261.5ZM.45,133.94c17,0,18.91-4.05,18.91-17.76V24.32c0-12.74-.58-17.76-18.91-17.76V2.71H45.61c39.95,0,55,15.25,55,33.58,0,17-14.67,32.62-35.9,40.14l39.95,44.39c9.65,11.19,15.25,13.12,22.39,13.12v3.86H96.18a110.57,110.57,0,0,0-11.39-16.6L49.47,81.83H35.19v34.35c0,13.7,2.9,17.76,22.77,17.76v3.86H.45Zm0,209c17,0,18.91-4.05,18.91-17.76V233.32c0-12.74-.58-17.76-18.91-17.76v-3.86H54.11v3.86c-18.33,0-18.91,5-18.91,17.76v91.86c0,13.7,1.93,17.76,18.91,17.76v3.86H.45ZM139.62,555.8H86.55v-3.86c16.6,0,17.95-4.83,13.51-17.76l-6.56-17.76H39.07l-6.75,17.76c-4.05,11.58-.77,17.76,15.05,17.76v3.86H.66v-3.86c14.28,0,17.76-4.05,23.35-17.76L69.37,418.78h2.32l45.16,115.41c5.4,13.7,8.68,17.76,22.77,17.76ZM263.33,432.86c-2.7-2.12-7.53-6.56-12-6.56-5.4,0-10.23,6.37-10.23,36.86h22v6.37h-22V535c0,14.28,1.74,17,19.3,17v3.86h-51v-3.86c14.47,0,16.4-2.7,16.4-17V469.53H179V535c0,14.28,1.74,17,19.3,17v3.86h-51v-3.86c14.47,0,16.4-2.7,16.4-17V469.53H149.27v-6.37h14.47v-3.47c0-24.12,22.19-42.84,35.51-42.84,2.12,0,11.58.39,1.93,16-2.7-2.12-7.53-6.56-12-6.56-5.4,0-10.23,6.37-10.23,36.86h46.9v-3.47c0-24.12,22.19-42.84,35.51-42.84C263.52,416.85,273,417.23,263.33,432.86Zm73,124.87c-6.37,0-11.39-3.09-13.9-11.19-10.81,8.3-19.69,11.19-27.4,11.19-12,0-21.42-9.65-21.42-25.09,0-17,31.84-17.37,48.44-18.33V483.62c0-10.23-3.28-17-13.32-17-16.21,0-20.07,13.9-17.37,21.81-15.63,9.65-15.44.39-15.44-1.74,0-13.32,22.58-25.47,38.6-25.47,21,0,23,11.39,23,19.69v61c0,4.44,1.16,12.74,12.16,8.49l1.93,3.47C345.94,556.38,340.73,557.73,336.29,557.73ZM404,555.8H359.25v-3.86c14.28,0,15.44-2.7,15.44-17V485c0-14.28-.19-17-14.47-17v-3.86l30.3-1.93-.58,19.88V535c0,14.28,1.16,17,14.09,17ZM368.9,433.25a60.35,60.35,0,0,1,12.74-12.54,60.36,60.36,0,0,1,12.74,12.54A53.23,53.23,0,0,1,381.64,446,53.23,53.23,0,0,1,368.9,433.25Zm23.72-161.91c-6.56-4.05-19.11-8.11-31.27,11V326c0,14.28,1.93,17,19.11,17v3.86H330.67v-3.86c14.28,0,15.44-2.7,15.44-17V276c0-14.28-.19-17-14.47-17v-3.86l30.3-1.93L361.36,276c8.3-14.47,21.81-26.25,33.77-23.35C397.06,253.2,406.13,258.8,392.62,271.34ZM363.67,139.73c-25.28,0-40.34-21.62-40.34-48.25s16.6-48.25,41.88-48.25,40.53,21.62,40.53,48.25S389,139.73,363.67,139.73Zm110,340.61c-6.56-4.05-19.11-8.11-31.27,11V535c0,14.28,1.93,17,19.11,17v3.86H411.75v-3.86c14.28,0,15.44-2.7,15.44-17V485c0-14.28-.19-17-14.47-17v-3.86L443,462.2,442.43,485c8.3-14.47,21.81-26.25,33.77-23.35C478.14,462.2,487.21,467.8,473.7,480.34Zm45.93,77.39c-9.84,0-20.84-2.89-27-8.3l1-21.23h3.86c1.93,17.56,10.61,23.93,24.32,23.93,10,0,16.6-7.91,16.6-14.09,0-23.74-45.16-31.07-45.16-53.27,0-16.4,17-23.54,32.42-23.54,8.68,0,17.95,2.51,23.35,6.18l-1.16,19.3H544c1-16.4-9.07-19.88-18.91-19.88-8.3,0-16.6,5.79-16.6,14.86,0,17.18,45.16,26.44,45.16,50.56C553.6,551.17,533.72,557.73,519.63,557.73Zm65.6-209c-6.37,0-11.39-3.09-13.9-11.19-10.81,8.3-19.69,11.19-27.4,11.19-12,0-21.42-9.65-21.42-25.09,0-17,31.84-17.37,48.44-18.33V274.62c0-10.23-3.28-17-13.32-17-16.21,0-20.07,13.9-17.37,21.81-15.63,9.65-15.44.39-15.44-1.74,0-13.32,22.58-25.48,38.6-25.48,21,0,23,11.39,23,19.69v61c0,4.44,1.16,12.74,12.16,8.49l1.93,3.47C594.88,347.38,589.67,348.73,585.23,348.73ZM606.85,137.8H562.07v-3.86c14.28,0,15.44-2.7,15.44-17V67c0-14.28-.19-15.44-14.47-15.44H525v56.74c0,24.12,10.42,28.56,29.33,20.65l1.93,3.47c-44.58,22.58-46.51-13.32-46.51-20.07V51.53H498.19v-5.4c15.25,0,20.26-7.14,24.9-23.54H525V45.16h68.32l-.58,18.91V117c0,14.28,1.16,17,14.09,17Zm110,209H672.08v-3.86c14.28,0,15.44-2.7,15.44-17V276c0-14.28-.19-15.44-14.47-15.44H635v56.74c0,24.12,10.42,28.56,29.33,20.65l1.93,3.47c-44.58,22.58-46.51-13.32-46.51-20.07V260.53H608.2v-5.4c15.25,0,20.26-7.14,24.9-23.54H635v22.58h68.32l-.58,18.91V326c0,14.28,1.16,17,14.09,17ZM681.73,224.25a60.34,60.34,0,0,1,12.74-12.54,60.35,60.35,0,0,1,12.74,12.54A53.23,53.23,0,0,1,694.47,237,53.22,53.22,0,0,1,681.73,224.25Zm36.09-86.45H673.24v-3.86c12.74,0,13.9-2.7,13.9-17V71.41c0-12.74-6-18.91-13.7-18.91-8.11,0-20.26,6.75-28.18,19.69V117c0,14.28,1.16,17,14.09,17v3.86H614.57v-3.86c14.28,0,15.44-2.7,15.44-17V67c0-14.28-.19-17-14.47-17V46.13l30.3-1.93-.58,19.88c8.69-12.74,25.28-20.84,37.25-20.84,11,0,19.88,6.95,19.88,23.35V117c0,14.28,1.35,17,15.44,17Zm49,210.93c-25.28,0-40.34-21.62-40.34-48.25s16.6-48.25,41.88-48.25,40.53,21.62,40.53,48.25S792.13,348.73,766.85,348.73ZM803.13,78c0,19.11-16.6,34.74-37.44,34.74-12.54.39-25.86,3.28-25.86,7.91,0,20.07,70.83-1.74,70.83,32.62,0,20.65-26.83,31.46-50.56,31.46-19.11,0-36.48-7.14-36.48-21.62,0-7.53,6.95-15.83,17.76-23.35-6-2.9-10-7.53-10-15.44,0-7.72,7.91-12.35,19.69-14.28-13.51-5.21-22.77-17.56-22.77-32,0-19.11,16.6-34.74,37.44-34.74a36.85,36.85,0,0,1,14.67,2.9c10.61,1.16,17.18-7.72,17.95-14.67,12-1.54,14.47,1.35,14.47,4.25,0,10.81-15.05,14.28-24.32,14.67C797.34,56.74,803.13,66.78,803.13,78ZM925.68,346.8H881.1v-3.86c12.74,0,13.9-2.7,13.9-17V280.41c0-12.74-6-18.91-13.7-18.91-8.11,0-20.26,6.75-28.18,19.69V326c0,14.28,1.16,17,14.09,17v3.86H822.43v-3.86c14.28,0,15.44-2.7,15.44-17V276c0-14.28-.19-17-14.47-17v-3.86l30.3-1.93-.58,19.88c8.68-12.74,25.28-20.84,37.25-20.84,11,0,19.88,6.95,19.88,23.35V326c0,14.28,1.35,17,15.44,17Zm72.38,1.93c-6.37,0-11.39-3.09-13.9-11.19-10.81,8.3-19.69,11.19-27.41,11.19-12,0-21.42-9.65-21.42-25.09,0-17,31.84-17.37,48.44-18.33V274.62c0-10.23-3.28-17-13.32-17-16.21,0-20.07,13.9-17.37,21.81-15.63,9.65-15.44.39-15.44-1.74,0-13.32,22.58-25.48,38.6-25.48,21,0,23,11.39,23,19.69v61c0,4.44,1.16,12.74,12.16,8.49l1.93,3.47C1007.71,347.38,1002.5,348.73,998.06,348.73Zm67.74-1.93H1021v-3.86c14.28,0,15.44-2.7,15.44-17V231.58c0-14.28-.19-16-14.47-16v-3.86l29.72-1.93V326c0,14.28,1.16,17,14.09,17Zm2.12-209h-44.58v-3.86c12.74,0,13.9-2.7,13.9-17V71.41c0-12.74-6-18.91-13.7-18.91-8.11,0-20.26,6.75-28.18,19.69V117c0,14.28,1.16,17,14.09,17v3.86H964.67v-3.86c14.28,0,15.44-2.7,15.44-17V67c0-14.28-.19-17-14.47-17V46.13l30.3-1.93-.58,19.88c8.68-12.74,25.28-20.84,37.25-20.84,11,0,19.88,6.95,19.88,23.35V117c0,14.28,1.35,17,15.44,17Z" fill="#fff"/><path d="M765.69,45.83C751,45.83,744.27,59.92,744.27,75s6,29.14,21.42,29.14S787.11,90,787.11,75,780.36,45.83,765.69,45.83Z" fill="#fff"/></g></g></svg>