<?xml version="1.0" encoding="UTF-8"?>
<svg width="11px" height="20px" viewBox="0 0 11 20" version="1.1" xmlns="http://www.w3.org/2000/svg" xmlns:xlink="http://www.w3.org/1999/xlink">
    <!-- Generator: Sketch 54.1 (76490) - https://sketchapp.com -->
    <title></title>
    <desc>Created with Sketch.</desc>
    <g id="Page-1" stroke="none" stroke-width="1" fill="none" fill-rule="evenodd">
        <g id="Desktop-hd" transform="translate(-688.000000, -2607.000000)" fill="#115175">
            <path d="M698.47619,2607.1507 L698.47619,2610.31539 L696.58526,2610.31539 C695.889742,2610.31539 695.418825,2610.45891 695.172496,2610.74596 C694.926166,2611.03301 694.803003,2611.46358 694.803003,2612.03767 L694.803003,2614.3197 L698.367516,2614.3197 L697.88935,2617.87191 L694.803003,2617.87191 L694.803003,2627 L691.086347,2627 L691.086347,2617.87191 L688,2617.87191 L688,2614.3197 L691.086347,2614.3197 L691.086347,2611.69322 C691.086347,2610.20057 691.506549,2609.04521 692.346967,2608.22713 C693.187385,2607.40904 694.31034,2607 695.715866,2607 C696.904043,2607 697.824142,2607.05023 698.47619,2607.1507 Z" id=""></path>
        </g>
    </g>
</svg>