<?xml version="1.0" encoding="UTF-8"?>
<svg width="20px" height="14px" viewBox="0 0 20 14" version="1.1" xmlns="http://www.w3.org/2000/svg" xmlns:xlink="http://www.w3.org/1999/xlink">
    <!-- Generator: Sketch 54.1 (76490) - https://sketchapp.com -->
    <title>mail - poni</title>
    <desc>Created with Sketch.</desc>
    <g id="Page-1" stroke="none" stroke-width="1" fill="none" fill-rule="evenodd">
        <g id="Desktop-hd" transform="translate(-787.000000, -2610.000000)" fill="#115175">
            <path d="M787,2622.30473 L787,2611.19576 L787.057859,2610.82932 L793.59595,2616.42237 L787.077146,2622.69045 C787.025715,2622.51045 787,2622.38187 787,2622.30473 Z M787.867888,2610.05786 C787.957892,2610.01929 788.06718,2610 788.195757,2610 L805.804243,2610 C805.919962,2610 806.035679,2610.01929 806.151398,2610.05786 L799.594021,2615.6702 L798.726133,2616.36451 L797.009643,2617.77242 L795.293153,2616.36451 L794.425265,2615.6702 L787.867888,2610.05786 Z M787.887175,2623.44262 L794.463838,2617.13597 L797.009643,2619.19961 L799.555448,2617.13597 L806.132112,2623.44262 C806.029251,2623.4812 805.919962,2623.50048 805.804243,2623.50048 L788.195757,2623.50048 C788.092896,2623.50048 787.990036,2623.4812 787.887175,2623.44262 Z M800.423337,2616.42237 L806.942141,2610.82932 C806.980714,2610.94503 807,2611.06718 807,2611.19576 L807,2622.30473 C807,2622.42044 806.980714,2622.54902 806.942141,2622.69045 L800.423337,2616.42237 Z" id="mail---poni"></path>
        </g>
    </g>
</svg>