<?xml version="1.0" encoding="utf-8"?>
<!-- Generator: Adobe Illustrator 23.0.2, SVG Export Plug-In . SVG Version: 6.00 Build 0)  -->
<svg version="1.1" id="Layer_1" xmlns="http://www.w3.org/2000/svg" xmlns:xlink="http://www.w3.org/1999/xlink" x="0px" y="0px"
	 viewBox="0 0 20 20" style="enable-background:new 0 0 20 20;" xml:space="preserve">
<style type="text/css">
	.st0{fill-rule:evenodd;clip-rule:evenodd;fill:#FFFFFF;}
</style>
<title>print-1 - poni</title>
<desc>Created with Sketch.</desc>
<g id="Page-1">
	<g id="Desktop-hd" transform="translate(-823.000000, -2607.000000)">
		<path id="print-1---poni" class="st0" d="M841.4,2612.2c0.4,0,0.8,0.2,1.1,0.5s0.5,0.7,0.5,1.2v7.8c0,0.4-0.2,0.8-0.5,1.1
			s-0.7,0.5-1.1,0.5h-1.6l0.7,3.3h-14.7l0.6-3.3h-1.7c-0.5,0-0.9-0.2-1.2-0.5c-0.3-0.3-0.5-0.7-0.5-1.2v-7.8c0-0.5,0.2-0.9,0.5-1.2
			c0.3-0.3,0.7-0.5,1.2-0.5h2v-2.5h0.7v-2.7h11.2v2.7h0.7v2.5H841.4z M828.2,2608v6.2h9.7v-6.2H828.2z M825.8,2616.3
			c0.3,0,0.6-0.1,0.8-0.3c0.2-0.2,0.3-0.5,0.3-0.8s-0.1-0.6-0.4-0.8c-0.2-0.2-0.5-0.3-0.8-0.3c-0.3,0-0.6,0.1-0.8,0.3
			c-0.2,0.2-0.3,0.5-0.3,0.8s0.1,0.6,0.3,0.8C825.2,2616.2,825.5,2616.3,825.8,2616.3z M827.1,2625.6h12.1l-1-5.1h-10.3
			L827.1,2625.6z"/>
	</g>
</g>
</svg>
