<?xml version="1.0" encoding="UTF-8"?>
<svg width="20px" height="20px" viewBox="0 0 20 20" version="1.1" xmlns="http://www.w3.org/2000/svg" xmlns:xlink="http://www.w3.org/1999/xlink">
    <!-- Generator: Sketch 54.1 (76490) - https://sketchapp.com -->
    <title>print-1 - poni</title>
    <desc>Created with Sketch.</desc>
    <g id="Page-1" stroke="none" stroke-width="1" fill="none" fill-rule="evenodd">
        <g id="Desktop-hd" transform="translate(-823.000000, -2607.000000)" fill="#115175">
            <path d="M841.405951,2612.22848 C841.831033,2612.22848 842.202974,2612.39143 842.521785,2612.71732 C842.840597,2613.04322 843,2613.43287 843,2613.88629 L843,2621.66525 C843,2622.1045 842.840597,2622.48707 842.521785,2622.81296 C842.202974,2623.13886 841.831033,2623.30181 841.405951,2623.30181 L839.790648,2623.30181 L840.513284,2626.55367 L825.82678,2626.55367 L826.400638,2623.30181 L824.657811,2623.30181 C824.190221,2623.30181 823.797026,2623.1424 823.478215,2622.82359 C823.159403,2622.50478 823,2622.11867 823,2621.66525 L823,2613.88629 C823,2613.4187 823.159403,2613.02551 823.478215,2612.7067 C823.797026,2612.38788 824.190221,2612.22848 824.657811,2612.22848 L826.698193,2612.22848 L826.698193,2609.74176 L827.420829,2609.74176 L827.420829,2607 L838.621679,2607 L838.621679,2609.74176 L839.344315,2609.74176 L839.344315,2612.22848 L841.405951,2612.22848 Z M828.164718,2607.99894 L828.164718,2614.2051 L837.87779,2614.2051 L837.87779,2607.99894 L828.164718,2607.99894 Z M825.763018,2616.26674 C826.088914,2616.26674 826.365213,2616.15338 826.591923,2615.92667 C826.818634,2615.69996 826.931987,2615.43429 826.931987,2615.12965 C826.931987,2614.82501 826.815091,2614.55934 826.581296,2614.33262 C826.347501,2614.10591 826.074745,2613.99256 825.763018,2613.99256 C825.451291,2613.99256 825.182077,2614.10591 824.955367,2614.33262 C824.728656,2614.55934 824.615303,2614.82501 824.615303,2615.12965 C824.615303,2615.43429 824.728656,2615.69996 824.955367,2615.92667 C825.182077,2616.15338 825.451291,2616.26674 825.763018,2616.26674 Z M827.102019,2625.57598 L839.153029,2625.57598 L838.154091,2620.43252 L827.867163,2620.43252 L827.102019,2625.57598 Z" id="print-1---poni"></path>
        </g>
    </g>
</svg>