<?xml version="1.0" encoding="UTF-8"?>
<svg width="20px" height="20px" viewBox="0 0 20 20" version="1.1" xmlns="http://www.w3.org/2000/svg" xmlns:xlink="http://www.w3.org/1999/xlink">
    <!-- Generator: Sketch 54.1 (76490) - https://sketchapp.com -->
    <title>link - poni</title>
    <desc>Created with Sketch.</desc>
    <g id="Page-1" stroke="none" stroke-width="1" fill="none" fill-rule="evenodd">
        <g id="Desktop-hd" transform="translate(-859.000000, -2607.000000)" fill="#115175">
            <path d="M866.35,2622.856 C866.583334,2622.623 866.866665,2622.5065 867.2,2622.5065 C867.533335,2622.5065 867.833332,2622.623 868.1,2622.856 C868.633336,2623.42185 868.633336,2624.00433 868.1,2624.60347 L867.05,2625.60202 C866.116662,2626.53401 865.00834,2627 863.725,2627 C862.44166,2627 861.333338,2626.53401 860.4,2625.60202 C859.466662,2624.67003 859,2623.56331 859,2622.28183 C859,2621.00034 859.466662,2619.89362 860.4,2618.96163 L864.1,2615.26698 C865.266673,2614.13528 866.46666,2613.49455 867.7,2613.34476 C868.933339,2613.19498 869.999996,2613.55279 870.9,2614.41821 C871.166668,2614.68449 871.3,2614.98406 871.3,2615.31691 C871.3,2615.64976 871.166668,2615.94933 870.9,2616.21561 C870.299997,2616.74817 869.716669,2616.74817 869.15,2616.21561 C868.316663,2615.41676 867.216673,2615.69968 865.85,2617.06438 L862.15,2620.70911 C861.716664,2621.14181 861.5,2621.67437 861.5,2622.30679 C861.5,2622.93921 861.716664,2623.46345 862.15,2623.87952 C862.583335,2624.29558 863.10833,2624.50361 863.725,2624.50361 C864.34167,2624.50361 864.866664,2624.28726 865.3,2623.85455 L866.35,2622.856 Z M877.6,2608.52674 C878.533338,2609.45873 879,2610.56545 879,2611.84693 C879,2613.12842 878.533338,2614.23514 877.6,2615.16713 L873.65,2619.11142 C872.416661,2620.30969 871.166673,2620.90882 869.9,2620.90882 C868.866662,2620.90882 867.933337,2620.49276 867.1,2619.66062 C866.866666,2619.42763 866.75,2619.1447 866.75,2618.81185 C866.75,2618.479 866.866666,2618.18776 867.1,2617.93812 C867.333334,2617.68848 867.624998,2617.56366 867.975,2617.56366 C868.325002,2617.56366 868.616666,2617.68015 868.85,2617.91315 C869.683337,2618.712 870.699994,2618.51229 871.9,2617.31402 L875.85,2613.41966 C876.316669,2612.95366 876.55,2612.41278 876.55,2611.797 C876.55,2611.18123 876.316669,2610.67363 875.85,2610.27421 C875.449998,2609.8415 874.983336,2609.58354 874.45,2609.50033 C873.916664,2609.41712 873.416669,2609.59186 872.95,2610.02457 L871.7,2611.27276 C871.433332,2611.50576 871.133335,2611.62226 870.8,2611.62226 C870.466665,2611.62226 870.183334,2611.50576 869.95,2611.27276 C869.383331,2610.70691 869.383331,2610.12443 869.95,2609.52529 L871.2,2608.2771 C872.100005,2607.3784 873.158327,2606.95401 874.375,2607.00394 C875.591673,2607.05387 876.666662,2607.56146 877.6,2608.52674 Z" id="link---poni"></path>
        </g>
    </g>
</svg>