<?xml version="1.0" encoding="utf-8"?>
<!-- Generator: Adobe Illustrator 23.0.2, SVG Export Plug-In . SVG Version: 6.00 Build 0)  -->
<svg version="1.1" id="Layer_1" xmlns="http://www.w3.org/2000/svg" xmlns:xlink="http://www.w3.org/1999/xlink" x="0px" y="0px"
	 viewBox="0 0 20 20" style="enable-background:new 0 0 20 20;" xml:space="preserve">
<style type="text/css">
	.st0{fill:#020202;}
</style>
<path class="st0" d="M8.6,17.1c-1.2,0-2.3-0.2-3.3-0.7s-1.9-1.1-2.7-1.8c-0.8-0.8-1.4-1.7-1.8-2.7C0.2,10.8,0,9.7,0,8.6
	c0-1.2,0.2-2.3,0.7-3.3s1.1-1.9,1.8-2.7s1.7-1.4,2.7-1.8S7.4,0,8.6,0s2.3,0.2,3.3,0.7c1.1,0.5,2,1.1,2.7,1.8
	c0.8,0.8,1.4,1.7,1.8,2.7c0.5,1,0.7,2.1,0.7,3.3c0,1-0.2,1.9-0.5,2.8s-0.8,1.7-1.3,2.4l4.7,4.7L18.5,20l-4.7-4.7
	c-0.7,0.6-1.5,1-2.4,1.3S9.5,17.1,8.6,17.1z M8.6,2.2c-0.9,0-1.7,0.2-2.5,0.5S4.6,3.4,4,4S3,5.3,2.6,6S2.2,7.7,2.2,8.6
	s0.2,1.7,0.5,2.5s0.8,1.5,1.4,2s1.3,1,2,1.4C6.8,14.8,7.7,15,8.6,15s1.7-0.2,2.5-0.5c0.8-0.4,1.5-0.8,2-1.4s1-1.3,1.4-2
	c0.3-0.8,0.5-1.6,0.5-2.5s-0.2-1.7-0.5-2.5c-0.4-0.8-0.8-1.5-1.4-2s-1.3-1-2-1.4C10.3,2.3,9.4,2.2,8.6,2.2z"/>
</svg>
