<?xml version="1.0" encoding="UTF-8"?>
<svg width="106px" height="84px" viewBox="0 0 106 84" version="1.1" xmlns="http://www.w3.org/2000/svg" xmlns:xlink="http://www.w3.org/1999/xlink">
    <!-- Generator: Sketch 54.1 (76490) - https://sketchapp.com -->
    <title>Icon Shape</title>
    <desc>Created with Sketch.</desc>
    <g id="Page-1" stroke="none" stroke-width="1" fill="none" fill-rule="evenodd">
        <g id="Desktop-hd" transform="translate(-664.000000, -2966.000000)" fill="#000000" fill-rule="nonzero">
            <path d="M709.238494,2972.3132 L705.3947,2966.36007 C678.783821,2984.3683 664,3006.24607 664,3024.2543 C664,3041.66721 676.714086,3049.85277 687.506276,3049.85277 C701.107392,3049.85277 710.716876,3038.24416 710.716876,3026.04024 C710.716876,3015.77108 704.211994,3006.99021 695.48954,3003.71598 C692.97629,3002.82301 690.610879,3002.07887 690.610879,2997.76285 C690.610879,2992.2562 694.60251,2984.07064 709.238494,2972.3132 Z M767.930265,2972.3132 L764.086471,2966.36007 C737.771269,2984.3683 722.691771,3006.24607 722.691771,3024.2543 C722.691771,3041.66721 735.701534,3049.85277 746.493724,3049.85277 C760.242678,3049.85277 770,3038.24416 770,3026.04024 C770,3015.77108 763.34728,3006.99021 754.329149,3003.71598 C751.8159,3002.82301 749.598326,3002.07887 749.598326,2997.76285 C749.598326,2992.2562 753.737796,2984.07064 767.930265,2972.3132 Z" id="Icon-Shape"></path>
        </g>
    </g>
</svg>