<?xml version="1.0" encoding="UTF-8"?>
<svg width="20px" height="20px" viewBox="0 0 20 20" version="1.1" xmlns="http://www.w3.org/2000/svg" xmlns:xlink="http://www.w3.org/1999/xlink">
    <!-- Generator: Sketch 54.1 (76490) - https://sketchapp.com -->
    <title>print-1 - poni</title>
    <desc>Created with Sketch.</desc>
    <g id="Page-1" stroke="none" stroke-width="1" fill="none" fill-rule="evenodd">
        <g id="Desktop-hd" transform="translate(-858.000000, -2597.000000)" fill="#000000">
            <path d="M876.405951,2602.22848 C876.831033,2602.22848 877.202974,2602.39143 877.521785,2602.71732 C877.840597,2603.04322 878,2603.43287 878,2603.88629 L878,2611.66525 C878,2612.1045 877.840597,2612.48707 877.521785,2612.81296 C877.202974,2613.13886 876.831033,2613.30181 876.405951,2613.30181 L874.790648,2613.30181 L875.513284,2616.55367 L860.82678,2616.55367 L861.400638,2613.30181 L859.657811,2613.30181 C859.190221,2613.30181 858.797026,2613.1424 858.478215,2612.82359 C858.159403,2612.50478 858,2612.11867 858,2611.66525 L858,2603.88629 C858,2603.4187 858.159403,2603.02551 858.478215,2602.7067 C858.797026,2602.38788 859.190221,2602.22848 859.657811,2602.22848 L861.698193,2602.22848 L861.698193,2599.74176 L862.420829,2599.74176 L862.420829,2597 L873.621679,2597 L873.621679,2599.74176 L874.344315,2599.74176 L874.344315,2602.22848 L876.405951,2602.22848 Z M863.164718,2597.99894 L863.164718,2604.2051 L872.87779,2604.2051 L872.87779,2597.99894 L863.164718,2597.99894 Z M860.763018,2606.26674 C861.088914,2606.26674 861.365213,2606.15338 861.591923,2605.92667 C861.818634,2605.69996 861.931987,2605.43429 861.931987,2605.12965 C861.931987,2604.82501 861.815091,2604.55934 861.581296,2604.33262 C861.347501,2604.10591 861.074745,2603.99256 860.763018,2603.99256 C860.451291,2603.99256 860.182077,2604.10591 859.955367,2604.33262 C859.728656,2604.55934 859.615303,2604.82501 859.615303,2605.12965 C859.615303,2605.43429 859.728656,2605.69996 859.955367,2605.92667 C860.182077,2606.15338 860.451291,2606.26674 860.763018,2606.26674 Z M862.102019,2615.57598 L874.153029,2615.57598 L873.154091,2610.43252 L862.867163,2610.43252 L862.102019,2615.57598 Z" id="print-1---poni"></path>
        </g>
    </g>
</svg>