<?xml version="1.0" encoding="utf-8"?>
<!-- Generator: Adobe Illustrator 23.0.2, SVG Export Plug-In . SVG Version: 6.00 Build 0)  -->
<svg version="1.1" id="Layer_1" xmlns="http://www.w3.org/2000/svg" xmlns:xlink="http://www.w3.org/1999/xlink" x="0px" y="0px"
	 viewBox="0 0 20 20" style="enable-background:new 0 0 20 20;" xml:space="preserve">
<style type="text/css">
	.st0{fill-rule:evenodd;clip-rule:evenodd;fill:#FFFFFF;}
</style>
<title>linkedin - poni</title>
<desc>Created with Sketch.</desc>
<g id="Page-1">
	<g id="Desktop-hd" transform="translate(-786.000000, -2597.000000)">
		<path id="linkedin---poni" class="st0" d="M790.6,2603.2v12.9h-4.3v-12.9H790.6z M790.8,2599.2c0,0.6-0.2,1.2-0.7,1.6
			c-0.5,0.4-1,0.6-1.8,0.6h0c-0.7,0-1.3-0.2-1.7-0.6s-0.7-0.9-0.7-1.6c0-0.6,0.2-1.2,0.7-1.6c0.5-0.4,1-0.6,1.8-0.6s1.3,0.2,1.7,0.6
			C790.6,2598,790.8,2598.6,790.8,2599.2z M797.2,2605c0.2-0.3,0.3-0.5,0.5-0.7c0.2-0.2,0.4-0.4,0.7-0.7c0.3-0.2,0.7-0.4,1.1-0.6
			s1-0.2,1.5-0.2c1.5,0,2.7,0.5,3.6,1.5c0.9,1,1.4,2.4,1.4,4.3v7.4h-4.3v-6.9c0-0.9-0.2-1.6-0.5-2.1c-0.4-0.5-0.9-0.8-1.7-0.8
			c-0.5,0-1,0.1-1.4,0.4c-0.4,0.3-0.6,0.7-0.8,1.1c-0.1,0.3-0.1,0.6-0.1,1v7.2h-4.3c0-3.5,0-6.3,0-8.4v-3.8l0-0.6h4.3V2605
			L797.2,2605z"/>
	</g>
</g>
</svg>
