<?xml version="1.0" encoding="UTF-8"?>
<svg width="28px" height="20px" viewBox="0 0 28 20" version="1.1" xmlns="http://www.w3.org/2000/svg" xmlns:xlink="http://www.w3.org/1999/xlink">
    <!-- Generator: Sketch 54.1 (76490) - https://sketchapp.com -->
    <title>Icon Shape</title>
    <desc>Created with Sketch.</desc>
    <g id="Page-1" stroke="none" stroke-width="1" fill="none" fill-rule="evenodd">
        <g id="Desktop-hd" transform="translate(-932.000000, -2607.000000)" fill="#000000" fill-rule="nonzero">
            <path d="M959.415625,2610.25313 C959.091243,2609.04502 958.148322,2608.10091 956.940625,2607.775 C954.75625,2607.1875 946,2607.1875 946,2607.1875 C946,2607.1875 937.24375,2607.1875 935.059375,2607.77187 C933.851078,2608.09674 932.90772,2609.04129 932.584375,2610.25 C932,2612.4375 932,2617 932,2617 C932,2617 932,2621.5625 932.584375,2623.74687 C932.90625,2624.95312 933.85625,2625.90312 935.059375,2626.225 C937.24375,2626.8125 946,2626.8125 946,2626.8125 C946,2626.8125 954.75625,2626.8125 956.940625,2626.225 C958.146875,2625.90312 959.09375,2624.95312 959.415625,2623.74687 C960,2621.5625 960,2617 960,2617 C960,2617 960,2612.4375 959.415625,2610.25313 Z M943.21875,2621.1875 L943.21875,2612.8125 L950.46875,2616.96875 L943.21875,2621.1875 Z" id="Icon-Shape"></path>
        </g>
    </g>
</svg>