<?xml version="1.0" encoding="utf-8"?>
<!-- Generator: Adobe Illustrator 23.0.2, SVG Export Plug-In . SVG Version: 6.00 Build 0)  -->
<svg version="1.1" id="Layer_1" xmlns="http://www.w3.org/2000/svg" xmlns:xlink="http://www.w3.org/1999/xlink" x="0px" y="0px"
	 viewBox="0 0 20 14" style="enable-background:new 0 0 20 14;" xml:space="preserve">
<style type="text/css">
	.st0{fill-rule:evenodd;clip-rule:evenodd;fill:#FFFFFF;}
</style>
<title>mail - poni</title>
<desc>Created with Sketch.</desc>
<g id="Page-1">
	<g id="Desktop-hd" transform="translate(-822.000000, -2600.000000)">
		<path id="mail---poni" class="st0" d="M822,2612.3v-11.1l0.1-0.4l6.5,5.6l-6.5,6.3C822,2612.5,822,2612.4,822,2612.3z
			 M822.9,2600.1c0.1,0,0.2-0.1,0.3-0.1h17.6c0.1,0,0.2,0,0.3,0.1l-6.6,5.6l-0.9,0.7l-1.7,1.4l-1.7-1.4l-0.9-0.7L822.9,2600.1z
			 M822.9,2613.4l6.6-6.3l2.5,2.1l2.5-2.1l6.6,6.3c-0.1,0-0.2,0.1-0.3,0.1h-17.6C823.1,2613.5,823,2613.5,822.9,2613.4z
			 M835.4,2606.4l6.5-5.6c0,0.1,0.1,0.2,0.1,0.4v11.1c0,0.1,0,0.2-0.1,0.4L835.4,2606.4z"/>
	</g>
</g>
</svg>
