<?xml version="1.0" encoding="UTF-8"?>
<svg width="20px" height="20px" viewBox="0 0 20 20" version="1.1" xmlns="http://www.w3.org/2000/svg" xmlns:xlink="http://www.w3.org/1999/xlink">
    <!-- Generator: Sketch 54.1 (76490) - https://sketchapp.com -->
    <title>linkedin - poni</title>
    <desc>Created with Sketch.</desc>
    <g id="Page-1" stroke="none" stroke-width="1" fill="none" fill-rule="evenodd">
        <g id="Desktop-hd" transform="translate(-751.000000, -2607.000000)" fill="#115175">
            <path d="M755.550758,2613.20047 L755.550758,2626.09091 L751.256709,2626.09091 L751.256709,2613.20047 L755.550758,2613.20047 Z M755.830805,2609.21445 C755.830805,2609.8516 755.605214,2610.37995 755.154026,2610.79953 C754.702837,2611.21912 754.119412,2611.4289 753.403734,2611.4289 L753.380397,2611.4289 C752.664718,2611.4289 752.089073,2611.21912 751.653442,2610.79953 C751.217812,2610.37995 751,2609.8516 751,2609.21445 C751,2608.57731 751.225591,2608.04895 751.676779,2607.62937 C752.127968,2607.20979 752.711393,2607 753.427071,2607 C754.14275,2607 754.718395,2607.20979 755.154026,2607.62937 C755.589656,2608.04895 755.815247,2608.57731 755.830805,2609.21445 Z M762.201867,2615.02744 C762.365918,2614.76377 762.537056,2614.53551 762.715286,2614.34266 C762.901985,2614.14064 763.143133,2613.91531 763.43874,2613.66667 C763.734346,2613.41803 764.115517,2613.23155 764.582264,2613.10723 C765.049011,2612.98291 765.546866,2612.91298 766.075846,2612.89744 C767.553877,2612.89744 768.744064,2613.38694 769.646441,2614.36597 C770.548818,2615.34499 771,2616.7902 771,2618.70163 L771,2626.09091 L766.729288,2626.09091 L766.729288,2619.19114 C766.729288,2618.27428 766.550371,2617.55944 766.192532,2617.04662 C765.834693,2616.5338 765.282384,2616.27739 764.535589,2616.27739 C763.991051,2616.27739 763.53987,2616.42502 763.18203,2616.72028 C762.824191,2617.01554 762.544147,2617.3885 762.34189,2617.83916 C762.248541,2618.10334 762.201867,2618.45299 762.201867,2618.88811 L762.201867,2626.09091 L757.907818,2626.09091 C757.923376,2622.62547 757.931155,2619.82052 757.931155,2617.67599 L757.931155,2613.82984 L757.907818,2613.20047 L762.201867,2613.20047 L762.201867,2615.02744 L762.201867,2615.02744 Z" id="linkedin---poni"></path>
        </g>
    </g>
</svg>