<?xml version="1.0" encoding="utf-8"?>
<!-- Generator: Adobe Illustrator 23.0.2, SVG Export Plug-In . SVG Version: 6.00 Build 0)  -->
<svg version="1.1" id="Layer_1" xmlns="http://www.w3.org/2000/svg" xmlns:xlink="http://www.w3.org/1999/xlink" x="0px" y="0px"
	 viewBox="0 0 28 20" style="enable-background:new 0 0 28 20;" xml:space="preserve">
<style type="text/css">
	.st0{fill:#FFFFFF;}
</style>
<title>Icon Shape</title>
<desc>Created with Sketch.</desc>
<g id="Page-1">
	<g id="Desktop-hd" transform="translate(-932.000000, -2607.000000)">
		<path id="Icon-Shape" class="st0" d="M959.4,2610.3c-0.3-1.2-1.3-2.2-2.5-2.5c-2.2-0.6-10.9-0.6-10.9-0.6s-8.8,0-10.9,0.6
			c-1.2,0.3-2.2,1.3-2.5,2.5c-0.6,2.2-0.6,6.8-0.6,6.8s0,4.6,0.6,6.7c0.3,1.2,1.3,2.2,2.5,2.5c2.2,0.6,10.9,0.6,10.9,0.6
			s8.8,0,10.9-0.6c1.2-0.3,2.2-1.3,2.5-2.5c0.6-2.2,0.6-6.7,0.6-6.7S960,2612.4,959.4,2610.3z M943.2,2621.2v-8.4l7.2,4.2
			L943.2,2621.2z"/>
	</g>
</g>
</svg>
