<?xml version="1.0" encoding="UTF-8"?>
<svg width="152px" height="152px" viewBox="0 0 152 152" version="1.1" xmlns="http://www.w3.org/2000/svg" xmlns:xlink="http://www.w3.org/1999/xlink">
    <!-- Generator: Sketch 54.1 (76490) - https://sketchapp.com -->
    <title>Combined Shape</title>
    <desc>Created with Sketch.</desc>
    <g id="Page-1" stroke="none" stroke-width="1" fill="none" fill-rule="evenodd">
        <g id="Desktop-hd" transform="translate(-964.000000, -3009.000000)" fill="#FFFFFF">
            <path d="M964,3009 L1116,3009 L1116,3161 L964,3161 L964,3009 Z M1032.23849,3048.95313 L1028.3947,3043 C1001.78382,3061.00823 987,3082.886 987,3100.89423 C987,3118.30714 999.714086,3126.4927 1010.50628,3126.4927 C1024.10739,3126.4927 1033.71688,3114.88409 1033.71688,3102.68017 C1033.71688,3092.41101 1027.21199,3083.63014 1018.48954,3080.35592 C1015.97629,3079.46295 1013.61088,3078.7188 1013.61088,3074.40278 C1013.61088,3068.89613 1017.60251,3060.71057 1032.23849,3048.95313 Z M1090.93026,3048.95313 L1087.08647,3043 C1060.77127,3061.00823 1045.69177,3082.886 1045.69177,3100.89423 C1045.69177,3118.30714 1058.70153,3126.4927 1069.49372,3126.4927 C1083.24268,3126.4927 1093,3114.88409 1093,3102.68017 C1093,3092.41101 1086.34728,3083.63014 1077.32915,3080.35592 C1074.8159,3079.46295 1072.59833,3078.7188 1072.59833,3074.40278 C1072.59833,3068.89613 1076.7378,3060.71057 1090.93026,3048.95313 Z" id="Combined-Shape"></path>
        </g>
    </g>
</svg>