<?xml version="1.0" encoding="UTF-8"?>
<svg width="20px" height="14px" viewBox="0 0 20 14" version="1.1" xmlns="http://www.w3.org/2000/svg" xmlns:xlink="http://www.w3.org/1999/xlink">
    <!-- Generator: Sketch 54.1 (76490) - https://sketchapp.com -->
    <title>mail - poni</title>
    <desc>Created with Sketch.</desc>
    <g id="Page-1" stroke="none" stroke-width="1" fill="none" fill-rule="evenodd">
        <g id="Desktop-hd" transform="translate(-822.000000, -2600.000000)" fill="#000000">
            <path d="M822,2612.30473 L822,2601.19576 L822.057859,2600.82932 L828.59595,2606.42237 L822.077146,2612.69045 C822.025715,2612.51045 822,2612.38187 822,2612.30473 Z M822.867888,2600.05786 C822.957892,2600.01929 823.06718,2600 823.195757,2600 L840.804243,2600 C840.919962,2600 841.035679,2600.01929 841.151398,2600.05786 L834.594021,2605.6702 L833.726133,2606.36451 L832.009643,2607.77242 L830.293153,2606.36451 L829.425265,2605.6702 L822.867888,2600.05786 Z M822.887175,2613.44262 L829.463838,2607.13597 L832.009643,2609.19961 L834.555448,2607.13597 L841.132112,2613.44262 C841.029251,2613.4812 840.919962,2613.50048 840.804243,2613.50048 L823.195757,2613.50048 C823.092896,2613.50048 822.990036,2613.4812 822.887175,2613.44262 Z M835.423337,2606.42237 L841.942141,2600.82932 C841.980714,2600.94503 842,2601.06718 842,2601.19576 L842,2612.30473 C842,2612.42044 841.980714,2612.54902 841.942141,2612.69045 L835.423337,2606.42237 Z" id="mail---poni"></path>
        </g>
    </g>
</svg>