<?xml version="1.0" encoding="UTF-8"?>
<svg width="11px" height="20px" viewBox="0 0 11 20" version="1.1" xmlns="http://www.w3.org/2000/svg" xmlns:xlink="http://www.w3.org/1999/xlink">
    <!-- Generator: Sketch 54.1 (76490) - https://sketchapp.com -->
    <title></title>
    <desc>Created with Sketch.</desc>
    <g id="Page-1" stroke="none" stroke-width="1" fill="none" fill-rule="evenodd">
        <g id="Desktop-hd" transform="translate(-723.000000, -2597.000000)" fill="#000000">
            <path d="M733.47619,2597.1507 L733.47619,2600.31539 L731.58526,2600.31539 C730.889742,2600.31539 730.418825,2600.45891 730.172496,2600.74596 C729.926166,2601.03301 729.803003,2601.46358 729.803003,2602.03767 L729.803003,2604.3197 L733.367516,2604.3197 L732.88935,2607.87191 L729.803003,2607.87191 L729.803003,2617 L726.086347,2617 L726.086347,2607.87191 L723,2607.87191 L723,2604.3197 L726.086347,2604.3197 L726.086347,2601.69322 C726.086347,2600.20057 726.506549,2599.04521 727.346967,2598.22713 C728.187385,2597.40904 729.31034,2597 730.715866,2597 C731.904043,2597 732.824142,2597.05023 733.47619,2597.1507 Z" id=""></path>
        </g>
    </g>
</svg>