<?xml version="1.0" encoding="UTF-8"?>
<svg width="20px" height="20px" viewBox="0 0 20 20" version="1.1" xmlns="http://www.w3.org/2000/svg" xmlns:xlink="http://www.w3.org/1999/xlink">
    <!-- Generator: Sketch 54.1 (76490) - https://sketchapp.com -->
    <title>link - poni</title>
    <desc>Created with Sketch.</desc>
    <g id="Page-1" stroke="none" stroke-width="1" fill="none" fill-rule="evenodd">
        <g id="Desktop-hd" transform="translate(-894.000000, -2597.000000)" fill="#000000">
            <path d="M901.35,2612.856 C901.583334,2612.623 901.866665,2612.5065 902.2,2612.5065 C902.533335,2612.5065 902.833332,2612.623 903.1,2612.856 C903.633336,2613.42185 903.633336,2614.00433 903.1,2614.60347 L902.05,2615.60202 C901.116662,2616.53401 900.00834,2617 898.725,2617 C897.44166,2617 896.333338,2616.53401 895.4,2615.60202 C894.466662,2614.67003 894,2613.56331 894,2612.28183 C894,2611.00034 894.466662,2609.89362 895.4,2608.96163 L899.1,2605.26698 C900.266673,2604.13528 901.46666,2603.49455 902.7,2603.34476 C903.933339,2603.19498 904.999996,2603.55279 905.9,2604.41821 C906.166668,2604.68449 906.3,2604.98406 906.3,2605.31691 C906.3,2605.64976 906.166668,2605.94933 905.9,2606.21561 C905.299997,2606.74817 904.716669,2606.74817 904.15,2606.21561 C903.316663,2605.41676 902.216673,2605.69968 900.85,2607.06438 L897.15,2610.70911 C896.716664,2611.14181 896.5,2611.67437 896.5,2612.30679 C896.5,2612.93921 896.716664,2613.46345 897.15,2613.87952 C897.583335,2614.29558 898.10833,2614.50361 898.725,2614.50361 C899.34167,2614.50361 899.866664,2614.28726 900.3,2613.85455 L901.35,2612.856 Z M912.6,2598.52674 C913.533338,2599.45873 914,2600.56545 914,2601.84693 C914,2603.12842 913.533338,2604.23514 912.6,2605.16713 L908.65,2609.11142 C907.416661,2610.30969 906.166673,2610.90882 904.9,2610.90882 C903.866662,2610.90882 902.933337,2610.49276 902.1,2609.66062 C901.866666,2609.42763 901.75,2609.1447 901.75,2608.81185 C901.75,2608.479 901.866666,2608.18776 902.1,2607.93812 C902.333334,2607.68848 902.624998,2607.56366 902.975,2607.56366 C903.325002,2607.56366 903.616666,2607.68015 903.85,2607.91315 C904.683337,2608.712 905.699994,2608.51229 906.9,2607.31402 L910.85,2603.41966 C911.316669,2602.95366 911.55,2602.41278 911.55,2601.797 C911.55,2601.18123 911.316669,2600.67363 910.85,2600.27421 C910.449998,2599.8415 909.983336,2599.58354 909.45,2599.50033 C908.916664,2599.41712 908.416669,2599.59186 907.95,2600.02457 L906.7,2601.27276 C906.433332,2601.50576 906.133335,2601.62226 905.8,2601.62226 C905.466665,2601.62226 905.183334,2601.50576 904.95,2601.27276 C904.383331,2600.70691 904.383331,2600.12443 904.95,2599.52529 L906.2,2598.2771 C907.100005,2597.3784 908.158327,2596.95401 909.375,2597.00394 C910.591673,2597.05387 911.666662,2597.56146 912.6,2598.52674 Z" id="link---poni"></path>
        </g>
    </g>
</svg>