<?xml version="1.0" encoding="utf-8"?>
<!-- Generator: Adobe Illustrator 23.0.2, SVG Export Plug-In . SVG Version: 6.00 Build 0)  -->
<svg version="1.1" id="Layer_1" xmlns="http://www.w3.org/2000/svg" xmlns:xlink="http://www.w3.org/1999/xlink" x="0px" y="0px"
	 viewBox="0 0 18 18" style="enable-background:new 0 0 18 18;" xml:space="preserve">
<style type="text/css">
	.st0{fill:#FFFFFF;}
</style>
<title>Icon Shape</title>
<desc>Created with Sketch.</desc>
<g id="Page-1">
	<g id="Desktop-hd" transform="translate(-923.000000, -2645.000000)">
		<path id="Icon-Shape" class="st0" d="M939,2645h-14c-1.1,0-2,0.9-2,2v14c0,1.1,0.9,2,2,2h14c1.1,0,2-0.9,2-2v-14
			C941,2645.9,940.1,2645,939,2645z M932,2659.5c3.1,0,5.5-2.5,5.5-5.5c0-0.3,0-0.7-0.1-1h1.6v7.2c0,0.2-0.1,0.4-0.2,0.5
			c-0.1,0.1-0.3,0.2-0.5,0.2h-12.6c-0.2,0-0.4-0.1-0.5-0.2c-0.1-0.1-0.2-0.3-0.2-0.5v-7.2h1.5c-0.1,0.3-0.1,0.6-0.1,1
			C926.4,2657,928.9,2659.5,932,2659.5L932,2659.5z M928.5,2654c0-1.9,1.5-3.5,3.5-3.5s3.5,1.5,3.5,3.5c0,1.9-1.5,3.5-3.5,3.5
			S928.5,2655.9,928.5,2654L928.5,2654z M938.3,2650h-1.6c-0.4,0-0.7-0.3-0.7-0.7v-1.6c0-0.4,0.3-0.7,0.7-0.7h1.6
			c0.4,0,0.7,0.3,0.7,0.7v1.6C939,2649.7,938.7,2650,938.3,2650z"/>
	</g>
</g>
</svg>
