<?xml version="1.0" encoding="UTF-8"?>
<svg width="20px" height="17px" viewBox="0 0 20 17" version="1.1" xmlns="http://www.w3.org/2000/svg" xmlns:xlink="http://www.w3.org/1999/xlink">
    <!-- Generator: Sketch 54.1 (76490) - https://sketchapp.com -->
    <title>twitter - poni</title>
    <desc>Created with Sketch.</desc>
    <g id="Page-1" stroke="none" stroke-width="1" fill="none" fill-rule="evenodd">
        <g id="Desktop-hd" transform="translate(-715.000000, -2609.000000)" fill="#115175">
            <path d="M735,2610.92276 C734.438753,2611.73711 733.756166,2612.43834 732.952218,2613.02649 L732.952218,2613.54676 C732.952218,2614.64764 732.792948,2615.74097 732.474403,2616.82676 C732.155857,2617.91256 731.670462,2618.96065 731.018203,2619.97104 C730.365943,2620.98144 729.58476,2621.86364 728.67463,2622.61767 C727.764501,2623.37169 726.672361,2623.98999 725.39818,2624.47256 C724.123998,2624.95514 722.75124,2625.18135 721.279863,2625.15118 C718.98937,2625.15118 716.896104,2624.54043 715,2623.31891 C715.288208,2623.34907 715.614333,2623.36415 715.978385,2623.36415 C717.889657,2623.36415 719.58854,2622.78356 721.075085,2621.62235 C720.180124,2621.60727 719.383773,2621.33583 718.686007,2620.80801 C717.988241,2620.28019 717.502846,2619.60912 717.229807,2618.79477 C717.518014,2618.84001 717.775881,2618.86263 718.003413,2618.86263 C718.367465,2618.86263 718.731511,2618.81739 719.095563,2618.7269 C718.139927,2618.53086 717.35116,2618.06337 716.729238,2617.32442 C716.107316,2616.58547 715.796359,2615.71835 715.796359,2614.72304 L715.796359,2614.6778 C716.372775,2614.99449 716.994688,2615.16791 717.662116,2615.19807 C717.100869,2614.82106 716.653396,2614.33849 716.319681,2613.75035 C715.985967,2613.16221 715.819113,2612.50621 715.819113,2611.78235 C715.819113,2611.05848 716.00872,2610.37987 716.387941,2609.74648 C717.419421,2610.99817 718.663246,2612.00101 720.119454,2612.75504 C721.575661,2613.50906 723.153196,2613.92377 724.852105,2613.99918 C724.776261,2613.68248 724.738339,2613.37334 724.738339,2613.07173 C724.738339,2611.94069 725.140307,2610.98309 725.944255,2610.1989 C726.748203,2609.41471 727.711409,2609.01508 728.833902,2609 C730.03224,2609 731.033367,2609.42979 731.837315,2610.28938 C732.762614,2610.10841 733.634808,2609.77665 734.453925,2609.29407 C734.13538,2610.25922 733.528635,2611.01324 732.633675,2611.55614 C733.422454,2611.46566 734.211221,2611.25453 735,2610.92276 Z" id="twitter---poni"></path>
        </g>
    </g>
</svg>