<?xml version="1.0" encoding="utf-8"?>
<!-- Generator: Adobe Illustrator 22.0.1, SVG Export Plug-In . SVG Version: 6.00 Build 0)  -->
<svg version="1.1" id="Layer_1" xmlns="http://www.w3.org/2000/svg" xmlns:xlink="http://www.w3.org/1999/xlink" x="0px" y="0px"
	 viewBox="0 0 116.7 88.5" style="enable-background:new 0 0 116.7 88.5;" xml:space="preserve">
<style type="text/css">
	.st0{display:none;}
	.st1{display:inline;fill:none;stroke:#000000;stroke-width:2.5;stroke-miterlimit:10;}
	.st2{fill:none;stroke:#757575;stroke-width:2.5;stroke-miterlimit:10;}
	.st3{fill:none;stroke:#BDBDBD;stroke-width:2.5;stroke-miterlimit:10;}
	.st4{fill:#004165;stroke:#78909C;stroke-width:2;stroke-miterlimit:10;}
	.st5{fill:none;stroke:#FFFFFF;stroke-width:2;stroke-miterlimit:10;}
</style>
<title>small-logo</title>
<g class="st0">
	<circle class="st1" cx="58.3" cy="43.6" r="30.6"/>
	<line class="st1" x1="58.3" y1="13" x2="58.3" y2="74.3"/>
	<line class="st1" x1="27.7" y1="43.6" x2="89" y2="43.6"/>
	<ellipse class="st1" cx="58.3" cy="43.6" rx="16.6" ry="30.6"/>
	<path class="st1" d="M37.7,20.9c5.5,5,12.8,8.1,20.8,8.1c7.9,0,15-3,20.5-7.8c-5.5-5-12.8-8.1-20.8-8.1C50.3,13,43.1,16,37.7,20.9z
		"/>
	<ellipse class="st1" cx="58.3" cy="66.3" rx="20.6" ry="8"/>
</g>
<path class="st2" d="M32.6,73c-7.5-7.5-12.2-17.9-12.2-29.4c0-10.8,4.1-20.6,10.8-28"/>
<path class="st2" d="M84,14.3c7.5,7.5,12.2,17.9,12.2,29.4c0,11.5-4.6,21.9-12.2,29.4"/>
<path class="st3" d="M17.9,80C9.7,70.1,4.8,57.5,4.8,43.6c0-13.2,4.5-25.4,12-35.1"/>
<path class="st3" d="M99.7,8.5c7.6,9.7,12.1,21.9,12.1,35.1c0,13.8-4.9,26.5-13.1,36.4"/>
<g>
	<circle class="st4" cx="58.3" cy="43.6" r="30.6"/>
	<circle class="st5" cx="58.3" cy="43.6" r="30.6"/>
	<line class="st5" x1="58.3" y1="13" x2="58.3" y2="74.3"/>
	<line class="st5" x1="27.7" y1="43.6" x2="89" y2="43.6"/>
	<ellipse class="st5" cx="58.3" cy="43.6" rx="16.6" ry="30.6"/>
	<path class="st5" d="M37.7,20.9c5.5,5,12.8,8.1,20.8,8.1c7.9,0,15-3,20.5-7.8c-5.5-5-12.8-8.1-20.8-8.1C50.3,13,43.1,16,37.7,20.9z
		"/>
	<ellipse class="st5" cx="58.3" cy="66.3" rx="20.6" ry="8"/>
</g>
</svg>
