<svg xmlns="http://www.w3.org/2000/svg" viewBox="0 0 116.66 88.5"><title>small-logo</title><g id="Layer_2" data-name="Layer 2"><g id="Layer_2-2" data-name="Layer 2"><path d="M66.65,2.37,62.53,4.43V6.49H56.35L54.29,4.43,52.23,6.49l2.06,2.75L47.42,11.3v2.06H43.3V16.1h3.43v2.06H40.56L38.5,21.6v2.75S46.74,23,47.42,23s2.75-2.75,2.75-2.75l3.43.69L55,17.48,58.41,25l2.06-1.37-.69-6.87,2.75,1.37L64.59,23,68,21.6l2.06-.69,1.37-3.43,5.49,1.37,1.37,2.06L70.76,23,69.39,25h6.18L74.2,28.46s-6.18-.69-6.87,0-5.49,0-5.49,0-2.06-.69-2.75,0-2.75,0-2.75,0L55,25.71,42.62,27.09l-7.55,6.18V49.06l11,6.18,3.43-3.43L55,54.55,54.29,58l4.12,6.18L55,69.65l6.18,11,5.49-2.75,3.43-2.06s8.92-10.3,8.24-10.3,0-5.49,0-5.49l6.18-6.87,1.37-4.12H78.32L74.88,35.33l2.06-2.06L81.06,47l12.36-7.55L90,36l-2.75.69-2.75-4.81,2.75-.69,1.37,2.06h6.18L101,38.07" fill="none" stroke="#000" stroke-miterlimit="10" stroke-width="2"/><circle cx="58.41" cy="44.25" r="43.25" fill="none" stroke="#000" stroke-miterlimit="10" stroke-width="2"/><path d="M95,8.23a51.75,51.75,0,0,1,0,73.19" fill="none" stroke="#000" stroke-miterlimit="10" stroke-width="2"/><path d="M98.89,4.34A57.25,57.25,0,0,1,100,84.16" fill="none" stroke="#000" stroke-miterlimit="10" stroke-width="2"/><path d="M21.66,80.27a51.75,51.75,0,0,1,0-73.19" fill="none" stroke="#000" stroke-miterlimit="10" stroke-width="2"/><path d="M17.77,84.16A57.25,57.25,0,0,1,16.65,4.34" fill="none" stroke="#000" stroke-miterlimit="10" stroke-width="2"/></g></g></svg>