<svg xmlns="http://www.w3.org/2000/svg" viewBox="0 0 508 122"><title>Asset 2</title><g id="Layer_2" data-name="Layer 2"><g id="Layer_1-2" data-name="Layer 1"><rect width="508" height="122" fill="none"/><path d="M108.84,59.11c.56-1.69,3.37-7.27,3.63-13.35a22,22,0,0,0-.49-5.71H41.46V79.82h64.66A22.33,22.33,0,0,1,105,72.36C105,67.45,108.84,59.11,108.84,59.11Z" fill="#005da4"/><path d="M182.35,40.05H114.4a17.51,17.51,0,0,1,.95,5.71c0,6-1.44,9-3.36,14.28,0,0-3.5,7.59-3.72,12.57a23.53,23.53,0,0,0,.47,7.21h73.61Z" fill="#009ddc"/><path d="M54.34,51.55H57V68.72H54.34Z" fill="#fff"/><path d="M72.05,59.6v.31l-4.32,6.46h8.21v2.35H63.66v-.27l5.61-8.54-5.35-8.09v-.27H75.61V53.9H68.18Z" fill="#fff"/><path d="M87.16,58.69c-.68-.73-1.62-1.92-1.62-1.92a24.14,24.14,0,0,1,.18,2.48v9.47H83.24V51.37h.36l9.47,10.18c.66.71,1.59,1.92,1.59,1.92S94.48,62,94.48,61V51.55H97V68.9h-.33Z" fill="#fff"/><path d="M119.25,65.39l2.2-1.21a4.22,4.22,0,0,0,3.94,2.4c1.74,0,3-.94,3-2.35s-1-2.15-2.88-3l-1.14-.51c-2.5-1.11-4-2.37-4-5s2-4.37,4.83-4.37A5.06,5.06,0,0,1,130,54.05l-2.1,1.28a2.85,2.85,0,0,0-2.75-1.66,2,2,0,0,0-2.22,2c0,1.29.73,1.87,2.47,2.63l1.11.51c2.93,1.28,4.5,2.65,4.5,5.4,0,3-2.35,4.75-5.58,4.75A6.48,6.48,0,0,1,119.25,65.39Z" fill="#fff"/><path d="M142.21,58.69c-.68-.73-1.61-1.92-1.61-1.92a24.14,24.14,0,0,1,.18,2.48v9.47H138.3V51.37h.35l9.48,10.18c.65.71,1.59,1.92,1.59,1.92s-.18-1.52-.18-2.48V51.55H152V68.9h-.33Z" fill="#fff"/><path d="M160.21,51.55h10.71V53.9h-8v5.53h7.28V61.8h-7.28v6.92h-2.67Z" fill="#fff"/><path d="M192.79,44.26h1.73V55.47h-1.73Z" fill="#717073"/><path d="M197,55.47v-.18l4.72-11.14h.2l4.82,11.14v.18Zm2.2-1.47h5.2l-2.06-5.07c-.26-.63-.52-1.57-.56-1.65s-.28,1-.54,1.65Z" fill="#717073"/><path d="M209.12,44.26h3.61c2.34,0,4.07,1.16,4.07,3.61s-1.73,3.63-4.07,3.63h-1.86v4h-1.75Zm3.54,5.7c1.52,0,2.36-.67,2.36-2.09s-.86-2.07-2.36-2.07h-1.79V50Z" fill="#717073"/><path d="M222.35,51.37l-3.9-7.11h2l2.16,4c.31.61.67,1.6.67,1.6s.36-1,.68-1.6l2.11-4h1.79l-3.72,7v4.22h-1.75Z" fill="#717073"/><path d="M230.11,44.15h.18l5.36,6.26,5.3-6.26h.19V55.47h-1.67V49.65c0-.61.07-1.56.07-1.6s-.56.84-1,1.34l-2.82,3.39h-.19l-2.82-3.39c-.41-.48-.94-1.27-1-1.34s.07,1,.07,1.6v5.82h-1.67Z" fill="#717073"/><path d="M248.25,44.15h.2l4.91,11.32h-1.81l-.82-2H246l-.82,2h-1.68ZM250.1,52l-1.22-3c-.25-.61-.54-1.57-.56-1.65s-.28,1-.54,1.65l-1.22,3Z" fill="#717073"/><path d="M264.55,49.52v.2l-2.82,4.22h5.36v1.53h-8v-.18l3.66-5.57-3.49-5.28v-.18h7.62V45.8H262Z" fill="#717073"/><path d="M272.38,45.8h-3.33V44.26h8.39V45.8h-3.33v9.67h-1.73Z" fill="#717073"/><path d="M282.33,44.15h.2l4.91,11.32h-1.81l-.83-2H280l-.82,2h-1.68ZM284.18,52l-1.22-3a16.68,16.68,0,0,1-.56-1.65s-.28,1-.55,1.65l-1.22,3Z" fill="#717073"/><path d="M292.76,51.37l-3.9-7.11h2l2.16,4c.31.61.67,1.6.67,1.6s.36-1,.68-1.6l2.11-4h1.79l-3.72,7v4.22h-1.75Z" fill="#717073"/><path d="M300.52,44.26h3.61c2.34,0,4.07,1.16,4.07,3.61s-1.73,3.63-4.07,3.63h-1.86v4h-1.75Zm3.55,5.7c1.51,0,2.35-.67,2.35-2.09s-.85-2.07-2.35-2.07h-1.8V50Z" fill="#717073"/><path d="M310.25,49.87A5.78,5.78,0,1,1,316,55.62,5.65,5.65,0,0,1,310.25,49.87Zm9.77,0a4,4,0,1,0-4,4.18A4,4,0,0,0,320,49.87Z" fill="#717073"/><path d="M328.42,49.52v.2l-2.82,4.22H331v1.53h-8v-.18l3.66-5.57-3.5-5.28v-.18h7.63V45.8H325.9Z" fill="#717073"/><path d="M340.57,48.93c-.45-.48-1.06-1.26-1.06-1.26a15.53,15.53,0,0,1,.12,1.62v6.18H338V44.15h.23l6.18,6.64c.43.46,1,1.25,1,1.25s-.12-1-.12-1.61V44.26H347V55.58h-.22Z" fill="#717073"/><path d="M350.22,44.26H352V55.47h-1.73Z" fill="#717073"/><path d="M359.12,44.15h.2l4.91,11.32h-1.81l-.83-2h-4.76l-.82,2h-1.69ZM361,52l-1.21-3c-.25-.61-.55-1.57-.57-1.65s-.28,1-.54,1.65l-1.22,3Z" fill="#717073"/><path d="M366.55,44.26h3.61c2.34,0,4.07,1.16,4.07,3.61s-1.73,3.63-4.07,3.63H368.3v4h-1.75Zm3.54,5.7c1.52,0,2.36-.67,2.36-2.09s-.86-2.07-2.36-2.07H368.3V50Z" fill="#717073"/><path d="M378.86,49.34l-3.15-5.08h1.93l1.7,2.74a9.4,9.4,0,0,1,.54,1.14,9.06,9.06,0,0,1,.51-1.14l1.67-2.74h1.88l-3.1,5.08,3.79,6.13H382.7l-2.32-3.76a6.86,6.86,0,0,1-.56-1.14,10.36,10.36,0,0,1-.53,1.14L377,55.47H375.1Z" fill="#717073"/><path d="M385.45,49.87a5.78,5.78,0,1,1,5.79,5.75A5.65,5.65,0,0,1,385.45,49.87Zm9.77,0a4,4,0,1,0-4,4.18A4,4,0,0,0,395.22,49.87Z" fill="#717073"/><path d="M403.63,49.52v.2l-2.82,4.22h5.36v1.53h-8v-.18l3.66-5.57-3.5-5.28v-.18H406V45.8h-4.84Z" fill="#717073"/><path d="M191.72,72l1.43-.79a2.77,2.77,0,0,0,2.57,1.56c1.14,0,1.95-.61,1.95-1.53s-.66-1.4-1.88-1.94l-.74-.33c-1.63-.73-2.62-1.55-2.62-3.28a2.87,2.87,0,0,1,3.14-2.85,3.31,3.31,0,0,1,3.17,1.76l-1.37.84a1.87,1.87,0,0,0-1.8-1.09,1.31,1.31,0,0,0-1.45,1.3c0,.85.48,1.22,1.62,1.72l.72.33c1.92.84,2.94,1.73,2.94,3.52,0,2-1.54,3.1-3.64,3.1A4.21,4.21,0,0,1,191.72,72Z" fill="#717073"/><path d="M204.18,64.47h-3.33V62.94h8.38v1.53h-3.32v9.67h-1.73Z" fill="#717073"/><path d="M214.13,62.82h.2l4.91,11.32h-1.82l-.82-2h-4.76l-.83,2h-1.68ZM216,70.65l-1.22-3.05c-.24-.61-.54-1.56-.56-1.65a17.17,17.17,0,0,1-.54,1.65l-1.22,3.05Z" fill="#717073"/><path d="M218.88,62.94h1.86l2.52,6a17.5,17.5,0,0,1,.67,2,16,16,0,0,1,.66-2l2.49-6h1.7L224,74.26h-.21Z" fill="#717073"/><path d="M231.1,62.94h3.76c2.3,0,4.07,1.09,4.07,3.56a3.21,3.21,0,0,1-2.28,3.21l2.64,4.43h-2L234.88,70h-2v4.15H231.1Zm3.69,5.58c1.49,0,2.34-.6,2.34-2s-.87-2-2.34-2h-1.94v4Z" fill="#717073"/><path d="M241.24,68.54A5.78,5.78,0,1,1,247,74.29,5.65,5.65,0,0,1,241.24,68.54Zm9.77,0a4,4,0,1,0-4,4.19A4,4,0,0,0,251,68.54Z" fill="#717073"/><path d="M254.39,72l1.43-.79a2.77,2.77,0,0,0,2.57,1.56c1.14,0,1.94-.61,1.94-1.53s-.65-1.4-1.87-1.94l-.75-.33c-1.63-.73-2.62-1.55-2.62-3.28a2.88,2.88,0,0,1,3.15-2.85,3.32,3.32,0,0,1,3.17,1.76l-1.37.84a1.88,1.88,0,0,0-1.8-1.09,1.31,1.31,0,0,0-1.45,1.3c0,.85.48,1.22,1.62,1.72l.72.33c1.91.84,2.93,1.73,2.93,3.52,0,2-1.53,3.1-3.64,3.1A4.21,4.21,0,0,1,254.39,72Z" fill="#717073"/><path d="M271.49,67.6c-.45-.48-1.06-1.25-1.06-1.25a15.22,15.22,0,0,1,.12,1.61v6.18h-1.61V62.82h.23l6.18,6.64c.42.47,1,1.26,1,1.26s-.11-1-.11-1.62V62.94h1.61V74.26h-.21Z" fill="#717073"/><path d="M281.15,62.94h1.73v11.2h-1.73Z" fill="#717073"/><path d="M290,62.82h.2l4.91,11.32h-1.81l-.83-2h-4.76l-.82,2h-1.68Zm1.85,7.83-1.22-3.05c-.25-.61-.54-1.56-.56-1.65s-.28,1-.54,1.65l-1.22,3.05Z" fill="#717073"/><path d="M297.47,62.94h3.76c2.31,0,4.07,1.09,4.07,3.56A3.2,3.2,0,0,1,303,69.71l2.63,4.43h-2L301.25,70h-2v4.15h-1.75Zm3.7,5.58c1.48,0,2.34-.6,2.34-2s-.88-2-2.34-2h-1.95v4Z" fill="#717073"/><path d="M307.61,68.54a5.63,5.63,0,0,1,5.75-5.73A5,5,0,0,1,317.84,65l-1.33,1a3.58,3.58,0,0,0-3.15-1.62,4.19,4.19,0,0,0,0,8.36A3.76,3.76,0,0,0,316.67,71l1.34.94a5.3,5.3,0,0,1-4.65,2.39A5.64,5.64,0,0,1,307.61,68.54Z" fill="#717073"/><path d="M320.48,62.94h1.75v5h5.38v-5h1.75v11.2h-1.75V69.48h-5.38v4.66h-1.75Z" fill="#717073"/><path d="M332.05,68.54a5.78,5.78,0,1,1,5.78,5.75A5.65,5.65,0,0,1,332.05,68.54Zm9.77,0a4,4,0,1,0-4,4.19A4,4,0,0,0,341.82,68.54Z" fill="#717073"/><path d="M345.2,72l1.43-.79a2.77,2.77,0,0,0,2.57,1.56c1.14,0,1.95-.61,1.95-1.53s-.66-1.4-1.88-1.94l-.74-.33c-1.64-.73-2.62-1.55-2.62-3.28a2.87,2.87,0,0,1,3.14-2.85,3.31,3.31,0,0,1,3.17,1.76l-1.37.84a1.87,1.87,0,0,0-1.8-1.09,1.31,1.31,0,0,0-1.45,1.3c0,.85.48,1.22,1.62,1.72l.72.33c1.91.84,2.94,1.73,2.94,3.52,0,2-1.54,3.1-3.65,3.1A4.21,4.21,0,0,1,345.2,72Z" fill="#717073"/><path d="M359.75,62.94h7v1.53h-5.24v3.61h4.75v1.55h-4.75v4.51h-1.74Z" fill="#717073"/><path d="M368.81,68.54a5.78,5.78,0,1,1,5.78,5.75A5.65,5.65,0,0,1,368.81,68.54Zm9.77,0a4,4,0,1,0-4,4.19A4,4,0,0,0,378.58,68.54Z" fill="#717073"/><path d="M383,70.21V62.94h1.75v7.17c0,1.81.89,2.62,2.52,2.62s2.54-.81,2.54-2.62V62.94h1.73v7.27c0,2.71-1.85,4.08-4.27,4.08S383,72.92,383,70.21Z" fill="#717073"/><path d="M397.2,67.6c-.44-.48-1.05-1.25-1.05-1.25s.11.92.11,1.61v6.18h-1.61V62.82h.23l6.18,6.64c.43.47,1,1.26,1,1.26s-.12-1-.12-1.62V62.94h1.62V74.26h-.22Z" fill="#717073"/><path d="M406.79,62.94h3.08c3.6,0,6,2.24,6,5.6s-2.37,5.6-6,5.6h-3.08Zm3,9.67c2.92,0,4.28-1.68,4.28-4.07s-1.36-4.07-4.28-4.07h-1.22v8.14Z" fill="#717073"/><path d="M421.54,62.82h.2l4.91,11.32h-1.81l-.83-2h-4.76l-.82,2h-1.68Zm1.85,7.83-1.22-3.05a15.83,15.83,0,0,1-.56-1.65s-.28,1-.55,1.65l-1.22,3.05Z" fill="#717073"/><path d="M430.08,64.47h-3.33V62.94h8.38v1.53h-3.32v9.67h-1.73Z" fill="#717073"/><path d="M437.57,62.94h1.73v11.2h-1.73Z" fill="#717073"/><path d="M442,68.54a5.78,5.78,0,1,1,5.78,5.75A5.65,5.65,0,0,1,442,68.54Zm9.77,0a4,4,0,1,0-4,4.19A4,4,0,0,0,451.81,68.54Z" fill="#717073"/><path d="M458.83,67.6c-.45-.48-1.05-1.25-1.05-1.25s.11.92.11,1.61v6.18h-1.61V62.82h.23l6.18,6.64c.42.47,1,1.26,1,1.26s-.11-1-.11-1.62V62.94h1.61V74.26H465Z" fill="#717073"/></g></g></svg>
