<svg width="516" height="244" viewBox="0 0 516 244" fill="none" xmlns="http://www.w3.org/2000/svg">
<path d="M83.7114 156.337H80.531V174.601H83.7114V156.337Z" fill="#0E4C88"/>
<path d="M104.749 174.602H87.2214C90.0463 168.455 92.8699 162.255 95.7015 156.082H96.2516L104.749 174.602ZM91.1817 172.058H100.678L95.9043 161.484H95.8448L91.1817 172.058Z" fill="#0E4C88"/>
<path d="M107.929 156.319H114.558C119.069 156.319 121.284 159.313 121.284 162.381C121.284 166.062 118.461 168.58 114.645 168.58H111.169V174.516H107.954L107.929 156.319ZM111.117 158.754V166.156H114.076C117.035 166.156 118.062 164.189 118.062 162.502C118.062 160.645 116.875 158.797 113.907 158.797L111.117 158.754Z" fill="#0E4C88"/>
<path d="M130.67 164.256L132.366 161.103C133.213 159.525 134.061 157.948 134.911 156.337H138.302C136.249 159.881 134.231 163.476 132.214 167.046V174.6H128.975V167.046L122.487 156.319H125.948L128.661 161L130.52 164.239L130.67 164.256Z" fill="#0E4C88"/>
<path d="M150.249 170.871L144.407 163.535C144.407 163.535 144.348 163.587 144.322 163.587V174.609H141.277V156.116H141.889C144.774 159.771 147.647 163.366 150.554 167.021C151.971 165.079 157.753 158.049 159.195 156.116H159.747V174.602H156.702V163.477C156.672 163.447 156.633 163.426 156.592 163.418L150.81 170.864L150.249 170.871Z" fill="#0E4C88"/>
<path d="M175.492 171.116H167.496L166.055 174.602H162.978L171.305 156.082H171.889L180.14 174.602H176.952L175.492 171.116ZM168.404 168.878H174.603L171.559 161.678H171.448L168.404 168.878Z" fill="#0E4C88"/>
<path d="M194.063 172.116H204.114V174.608H189.298V174.277L194.837 164.951L189.603 156.76V156.319H203.595V158.863H194.48C195.787 160.831 197.084 162.848 198.358 164.799L194.063 172.116Z" fill="#0E4C88"/>
<path d="M214.431 158.83V174.602H211.252V158.83H205.652V156.312H220.003V158.83H214.431Z" fill="#0E4C88"/>
<path d="M232.424 171.116H224.428L222.987 174.602H219.917L228.187 156.09H228.773L237.024 174.61H233.869L232.424 171.116ZM225.336 168.878H231.577L228.533 161.677H228.422L225.336 168.878Z" fill="#0E4C88"/>
<path d="M244.771 164.256L246.466 161.103C247.312 159.525 248.162 157.948 249.01 156.337H252.401C250.349 159.881 248.33 163.476 246.313 167.046V174.6H243.126V167.046L236.666 156.319H240.058L242.772 161L244.627 164.239L244.771 164.256Z" fill="#0E4C88"/>
<path d="M255.396 156.319H262.042C266.555 156.319 268.769 159.313 268.769 162.381C268.769 166.062 265.946 168.58 262.13 168.58H258.61V174.516H255.398V156.319H255.396ZM258.583 158.754V166.156H261.542C264.501 166.156 265.527 164.189 265.527 162.502C265.527 160.645 264.34 158.797 261.373 158.797L258.583 158.754Z" fill="#0E4C88"/>
<path d="M271.616 165.468C271.616 160.242 275.854 156.005 281.08 156.005H281.308C286.458 155.839 290.767 159.877 290.933 165.026V165.466C291.039 170.58 286.977 174.809 281.865 174.913C281.862 174.913 281.862 174.913 281.86 174.913H281.3C275.261 174.913 271.641 170.817 271.641 165.474L271.616 165.468ZM274.857 165.477C274.857 169.354 277.348 172.312 281.333 172.312C285.317 172.312 287.787 169.243 287.787 165.477C287.787 161.713 285.243 158.695 281.333 158.695C277.425 158.695 274.857 161.687 274.857 165.477Z" fill="#0E4C88"/>
<path d="M298.131 172.116H308.183V174.608H293.366V174.277L298.905 164.951L293.674 156.76V156.319H307.68V158.863H298.567C299.872 160.831 301.169 162.848 302.442 164.799L298.131 172.116Z" fill="#0E4C88"/>
<path d="M318.866 174.602V156.03H319.477C321.357 157.913 329.583 166.443 331.492 168.317H331.635V156.318H334.762V174.829H334.179C332.051 172.505 324.214 164.755 322.11 162.398H322.025V174.608L318.866 174.602Z" fill="#0E4C88"/>
<path d="M343.022 156.338H339.842V174.602H343.022V156.338Z" fill="#0E4C88"/>
<path d="M358.963 171.116H350.969L349.525 174.602H346.457L354.791 156.082H355.378L363.629 174.602H360.464L358.963 171.116ZM351.875 168.878H358.077L355.033 161.678H354.919L351.875 168.878Z" fill="#0E4C88"/>
<path d="M366.739 156.319H373.386C377.899 156.319 380.112 159.313 380.112 162.381C380.112 166.062 377.288 168.58 373.474 168.58H369.955V174.516H366.739V156.319ZM369.928 158.754V166.156H372.886C375.846 166.156 376.868 164.189 376.868 162.502C376.868 160.645 375.685 158.797 372.716 158.797L369.928 158.754Z" fill="#0E4C88"/>
<path d="M389.465 165.647L384.147 174.558H380.754L386.689 165.121L381.154 156.319H384.545L389.446 164.621L394.289 156.319H397.775C395.945 159.252 393.985 162.187 392.185 165.121L398.121 174.558H394.637L389.465 165.647Z" fill="#0E4C88"/>
<path d="M400.564 165.467C400.564 160.241 404.8 156.004 410.029 156.004H410.256C415.406 155.872 419.689 159.939 419.82 165.088V165.094V165.467C419.926 170.58 415.865 174.809 410.752 174.913C410.752 174.913 410.749 174.913 410.747 174.913H410.187C404.149 174.913 400.53 170.818 400.53 165.475L400.564 165.467ZM403.744 165.476C403.744 169.353 406.239 172.311 410.224 172.311C414.208 172.311 416.667 169.242 416.667 165.476C416.667 161.712 414.124 158.694 410.224 158.694C406.323 158.694 403.744 161.686 403.744 165.476Z" fill="#0E4C88"/>
<path d="M427.078 172.116H437.13V174.608H422.365V174.277L427.904 164.951L422.669 156.76V156.319H436.679V158.863H427.453C428.758 160.831 430.057 162.848 431.329 164.799L427.078 172.116Z" fill="#0E4C88"/>
<path d="M32 207.018C33.626 208.184 35.5629 208.836 37.5633 208.893C39.6151 208.893 41.3019 208.147 41.3019 206.35C41.3019 202.109 32.3055 202.829 32.3055 197.436C32.3055 194.309 34.9938 192.534 38.1742 192.534C39.957 192.514 41.7195 192.911 43.3199 193.698V196.52C41.9331 195.624 40.3247 195.126 38.673 195.079C37.0375 195.079 35.4845 195.714 35.4845 197.377C35.4845 200.48 44.4823 200.091 44.4823 206.204C44.4823 209.417 42.048 211.462 37.9782 211.462C35.9049 211.499 33.8585 210.993 32.0433 209.993L32 207.018Z" fill="#0E4C88"/>
<path d="M55.3859 195.368V211.14H52.1988V195.368H46.6099V192.841H60.9492V195.368H55.3859Z" fill="#0E4C88"/>
<path d="M72.8124 207.657H64.8162L63.374 211.141H60.3044L68.6399 192.62H69.2265L77.4768 211.141H74.2965L72.8124 207.657ZM65.7218 205.417H71.9636L68.9183 198.217H68.8089L65.7218 205.417Z" fill="#0E4C88"/>
<path d="M84.6148 211.394C83.343 208.324 77.831 195.978 76.5862 192.897H79.9774C80.3342 193.84 82.8253 200.038 84.8798 205.109H85.015C85.9557 202.675 88.9495 195.229 89.8565 192.897H93.122L85.2609 211.394H84.6148Z" fill="#0E4C88"/>
<path d="M113.429 202.007C113.429 196.782 117.666 192.545 122.893 192.545H123.121C128.333 192.231 132.813 196.204 133.124 201.415C133.437 206.626 129.466 211.107 124.253 211.419C124.065 211.43 123.877 211.436 123.689 211.436H123.12C117.082 211.436 113.463 207.34 113.463 201.998L113.429 202.007ZM116.677 201.998C116.677 205.873 119.168 208.833 123.155 208.833C127.141 208.833 129.624 205.772 129.624 202.007C129.624 198.243 127.08 195.222 123.171 195.222C119.263 195.222 116.696 198.215 116.696 202.007" fill="#0E4C88"/>
<path d="M135.814 207.018C137.442 208.186 139.384 208.837 141.386 208.893C143.438 208.893 145.126 208.147 145.126 206.35C145.126 202.109 136.129 202.829 136.129 197.436C136.129 194.309 138.815 192.534 141.998 192.534C143.78 192.514 145.543 192.911 147.144 193.698V196.52C145.756 195.624 144.149 195.126 142.497 195.079C140.86 195.079 139.31 195.714 139.31 197.377C139.31 200.48 148.305 200.091 148.305 206.204C148.305 209.417 145.872 211.462 141.802 211.462C139.729 211.499 137.681 210.993 135.866 209.993L135.814 207.018Z" fill="#0E4C88"/>
<path d="M159.565 211.14V192.57H160.152C162.059 194.476 170.278 202.959 172.183 204.857H172.293V192.876H175.414V211.359H174.866C172.737 209.036 164.899 201.26 162.8 198.93H162.694V211.14H159.565Z" fill="#0E4C88"/>
<path d="M183.724 192.874H180.545V211.14H183.724V192.874Z" fill="#0E4C88"/>
<path d="M199.675 207.657H191.676L190.236 211.141H187.167L195.499 192.62H196.086L204.338 211.141H201.159L199.675 207.657ZM192.584 205.417H198.781L195.764 198.217H195.655L192.584 205.417Z" fill="#0E4C88"/>
<path d="M239.638 210.281C237.968 211.066 236.14 211.464 234.297 211.442C228.099 211.442 224.712 207.372 224.712 202.116C224.577 196.966 228.639 192.683 233.787 192.543H234.406C235.974 192.519 237.534 192.794 239.003 193.348V196.086C237.693 195.472 236.267 195.159 234.821 195.17C231.188 195.032 228.129 197.862 227.987 201.497V202.108C227.987 206.262 230.531 208.832 234.685 208.832C236.425 208.804 238.138 208.358 239.672 207.536L239.638 210.281Z" fill="#0E4C88"/>
<path d="M255.291 211.14V202.861H246.794V211.14H243.615V192.874H246.794V200.319H255.291V192.874H258.445V211.14H255.291Z" fill="#0E4C88"/>
<path d="M261.837 202.008C261.837 196.783 266.073 192.546 271.301 192.546H271.529C276.741 192.233 281.221 196.204 281.533 201.416C281.844 206.627 277.873 211.106 272.659 211.42C272.467 211.432 272.274 211.437 272.081 211.437H271.512C265.492 211.437 261.903 207.35 261.903 202.007L261.837 202.008ZM265.117 202.008C265.117 205.883 267.61 208.843 271.598 208.843C275.582 208.843 278.015 205.774 278.015 202.008C278.015 198.243 275.472 195.223 271.562 195.223C267.652 195.223 265.085 198.216 265.085 202.008" fill="#0E4C88"/>
<path d="M284.224 207.018C285.85 208.186 287.792 208.837 289.794 208.893C291.847 208.893 293.533 208.147 293.533 206.35C293.533 202.109 284.535 202.829 284.535 197.436C284.535 194.309 287.223 192.534 290.405 192.534C292.189 192.514 293.952 192.911 295.551 193.698V196.52C294.165 195.624 292.556 195.126 290.905 195.079C289.268 195.079 287.718 195.714 287.718 197.377C287.718 200.48 296.714 200.091 296.714 206.204C296.714 209.417 294.279 211.462 290.209 211.462C288.138 211.499 286.091 210.993 284.275 209.993L284.224 207.018Z" fill="#0E4C88"/>
<path d="M307.972 211.14V192.874H320.126V195.393H311.153V200.955H319.157V203.414H311.153V211.14H307.972Z" fill="#0E4C88"/>
<path d="M322.17 202.007C322.17 196.782 326.406 192.545 331.631 192.545H331.861C337.072 192.231 341.551 196.204 341.866 201.415C342.177 206.626 338.206 211.107 332.992 211.419C332.804 211.43 332.617 211.436 332.43 211.436H331.861C325.822 211.436 322.202 207.34 322.202 201.998L322.17 202.007ZM325.417 201.998C325.417 205.873 327.909 208.833 331.895 208.833C335.879 208.833 338.339 205.762 338.339 201.998C338.339 198.232 335.797 195.214 331.895 195.214C327.995 195.216 325.417 198.209 325.417 201.998Z" fill="#0E4C88"/>
<path d="M357.571 192.874H360.725V204.134C360.725 208.373 358.12 211.441 353.195 211.441C348.267 211.441 345.665 208.484 345.665 204.167V192.874H348.847V204.057C348.847 206.525 350.204 208.789 353.221 208.789C356.241 208.789 357.573 206.686 357.573 204.194V192.874H357.571Z" fill="#0E4C88"/>
<path d="M365.626 211.14V192.57H366.204C368.118 194.476 376.377 202.959 378.253 204.857H378.362V192.876H381.466V211.359H380.916C378.788 209.036 370.953 201.26 368.85 198.93H368.747V211.14H365.626Z" fill="#0E4C88"/>
<path d="M386.409 211.14V192.874H392.89C398.823 192.874 402.131 196.665 402.131 201.956C402.131 207.247 398.977 211.148 393.245 211.148L386.409 211.14ZM392.974 195.393H389.581V208.62H393.211C396.951 208.62 399.027 206.077 399.027 201.946C399.027 198.208 397.143 195.385 392.99 195.385" fill="#0E4C88"/>
<path d="M416.054 207.657H408.059L406.617 211.141H403.513L411.846 192.62H412.433L420.684 211.141H417.496L416.054 207.657ZM408.964 205.417H415.166L412.119 198.217H411.992L408.964 205.417Z" fill="#0E4C88"/>
<path d="M429.036 195.368V211.14H425.856V195.368H420.26V192.841H434.601V195.368H429.036Z" fill="#0E4C88"/>
<path d="M441.213 192.874H438.032V211.14H441.213V192.874Z" fill="#0E4C88"/>
<path d="M445.646 202.007C445.646 196.782 449.883 192.545 455.109 192.545H455.339C460.552 192.231 465.031 196.204 465.342 201.415C465.654 206.626 461.682 211.107 456.471 211.419C456.281 211.43 456.095 211.436 455.906 211.436H455.337C449.301 211.436 445.678 207.34 445.678 201.998L445.646 202.007ZM448.893 201.998C448.893 205.873 451.386 208.833 455.372 208.833C459.357 208.833 461.825 205.762 461.825 201.998C461.825 198.232 459.279 195.214 455.372 195.214C451.463 195.216 448.893 198.209 448.893 201.998Z" fill="#0E4C88"/>
<path d="M469.144 211.14V192.57H469.755C471.635 194.476 479.829 202.959 481.762 204.857H481.872V192.876H485V211.359H484.45C482.322 209.036 474.486 201.26 472.381 198.938H472.296V211.14H469.144Z" fill="#0E4C88"/>
<path d="M110.797 211.139L105.635 204.652C108.033 203.785 109.61 201.486 109.552 198.936C109.552 195.867 107.338 192.873 102.828 192.873H96.178V211.156H99.3935V205.222H102.639C104.151 207.272 106.279 210.258 107.067 211.156L110.797 211.139ZM99.3692 202.71V195.326H102.167C105.126 195.326 106.321 197.182 106.321 199.039C106.321 200.734 105.295 202.694 102.336 202.694L99.3692 202.71Z" fill="#0E4C88"/>
<path d="M222.052 211.139L216.896 204.652C219.294 203.785 220.87 201.486 220.814 198.936C220.814 195.867 218.602 192.873 214.089 192.873H207.44V211.156H210.654V205.222H213.893C215.402 207.272 217.53 210.258 218.318 211.156L222.052 211.139ZM210.62 202.71V195.326H213.418C216.377 195.326 217.572 197.182 217.572 199.039C217.572 200.734 216.546 202.694 213.587 202.694L210.62 202.71Z" fill="#0E4C88"/>
<path d="M437.058 33H81V125H437.058V33Z" fill="url(#paint0_linear_23_456)"/>
<path d="M133.896 62.7988H128.222V95.2018H133.896V62.7988Z" fill="white"/>
<path d="M150.495 90.7783H168.313V95.2038H141.915V94.6071L151.814 78.108L142.607 63.3555V62.6953H167.457V67.156H151.22C153.531 70.6493 155.842 74.2129 158.117 77.7481L150.495 90.7783Z" fill="white"/>
<path d="M175.707 95.206V62.2051H176.796C180.096 65.5049 194.713 80.6822 198.113 84.0118H198.311V62.7977H203.854V95.5605H202.865C199.07 91.434 185.178 77.7084 181.449 73.5224V95.202H175.707V95.206Z" fill="white"/>
<path d="M299.12 87.8441C302.014 89.9073 305.462 91.06 309.019 91.1439C312.652 91.1439 315.619 89.8207 315.619 86.5885C315.619 79.1298 299.647 80.3515 299.647 70.7821C299.647 65.2364 304.433 62.0692 310.076 62.0692C313.231 62.0408 316.358 62.7484 319.183 64.1473V69.1654C316.72 67.5702 313.868 66.6841 310.932 66.5934C308.064 66.5934 305.293 67.7434 305.293 70.682C305.293 76.1601 321.265 75.4998 321.265 86.3247C321.265 92.0355 316.941 95.6614 309.715 95.6614C306.016 95.7412 302.357 94.8428 299.118 93.0556L299.12 87.8441Z" fill="white"/>
<path d="M329.676 95.1682V62.1699H330.765C334.065 65.4697 348.682 80.6511 352.049 83.9807H352.247V62.7666H357.825V95.5659H356.836C353.04 91.4394 339.15 77.6773 335.419 73.5211V95.1695L329.676 95.1682Z" fill="white"/>
<path d="M368.256 95.1695V62.7666H389.799V67.2178H373.93V77.1173H388.12V81.5062H373.93V95.2074L368.256 95.1695Z" fill="white"/>
<path d="M253.087 106.256H247.543C247.338 95.8868 250.549 85.7371 256.683 77.3827C262.232 69.9131 265.135 60.8118 264.935 51.5117H270.482C270.691 61.8658 267.494 72.0007 261.37 80.3497C255.817 87.8301 252.903 96.9448 253.087 106.256Z" fill="white"/>
<defs>
<linearGradient id="paint0_linear_23_456" x1="80.9784" y1="78.9686" x2="437.029" y2="78.9686" gradientUnits="userSpaceOnUse">
<stop stop-color="#114D88"/>
<stop offset="0.1" stop-color="#114D88"/>
<stop offset="0.57" stop-color="#177EBA"/>
<stop offset="0.9" stop-color="#129BD7"/>
<stop offset="1" stop-color="#129BD7"/>
</linearGradient>
</defs>
</svg>
