<svg xmlns="http://www.w3.org/2000/svg" viewBox="0 0 32 32"><title>audio</title><g id="Layer_2" data-name="Layer 2"><g id="audio"><path d="M18.48,4.92V7.51a8.23,8.23,0,0,1,4.42,3.18,9.14,9.14,0,0,1,0,10.62,8.23,8.23,0,0,1-4.42,3.18v2.59a10.73,10.73,0,0,0,6.15-4A11.14,11.14,0,0,0,27.08,16a11.14,11.14,0,0,0-2.45-7.1A10.73,10.73,0,0,0,18.48,4.92Z" fill="#bdbdbd"/><path d="M26.73,0H5.27A5.27,5.27,0,0,0,0,5.27V26.73A5.27,5.27,0,0,0,5.27,32H26.73A5.27,5.27,0,0,0,32,26.73V5.27A5.27,5.27,0,0,0,26.73,0ZM16,26.16,9.82,19.69H4.92V12.31h4.9L16,5.84Z" fill="#d32f2f"/><path d="M21.54,16a5.82,5.82,0,0,0-.84-3,5.24,5.24,0,0,0-2.22-2.11V21.11a4.92,4.92,0,0,0,2.22-2A5.82,5.82,0,0,0,21.54,16Z" fill="#bdbdbd"/><path d="M18.48,4.92V7.51a8.23,8.23,0,0,1,4.42,3.18,9.14,9.14,0,0,1,0,10.62,8.23,8.23,0,0,1-4.42,3.18v2.59a10.73,10.73,0,0,0,6.15-4A11.14,11.14,0,0,0,27.08,16a11.14,11.14,0,0,0-2.45-7.1A10.73,10.73,0,0,0,18.48,4.92Z" fill="#bdbdbd"/></g></g></svg>