<svg xmlns="http://www.w3.org/2000/svg" viewBox="0 0 32 32"><title>blockquote</title><g id="Layer_2" data-name="Layer 2"><g id="blockquote"><rect width="32" height="32" rx="5.27" ry="5.27" fill="#42a5f5"/><path d="M7.38,15.38a2.54,2.54,0,0,1-1.23-.29,3,3,0,0,1-.9-.77,3.31,3.31,0,0,1-.56-1.07A3.77,3.77,0,0,1,4.49,12a7.06,7.06,0,0,1,.33-2.31,4.89,4.89,0,0,1,1-1.64A7.44,7.44,0,0,1,7.27,6.8C7.84,6.42,8.46,6,9.14,5.65c.18-.11.34-.06.47.15a.34.34,0,0,1-.08.51c-.42.31-.81.62-1.17.92a6,6,0,0,0-.94.94,2.76,2.76,0,0,0-.53,1.07A2.77,2.77,0,0,0,7,10.57a.54.54,0,0,0,.28.41,1.93,1.93,0,0,0,.66.14,1.78,1.78,0,0,1,1.35.68,2.48,2.48,0,0,1,.45,1.51A1.84,1.84,0,0,1,9,14.79,2.42,2.42,0,0,1,7.38,15.38Zm6.27,0a2.54,2.54,0,0,1-1.23-.29,3,3,0,0,1-.9-.77A3.33,3.33,0,0,1,11,13.25,4,4,0,0,1,10.76,12a7.06,7.06,0,0,1,.33-2.31,4.89,4.89,0,0,1,1-1.64A7.38,7.38,0,0,1,13.53,6.8c.57-.38,1.2-.76,1.88-1.15.18-.11.34-.06.47.15a.34.34,0,0,1-.08.51c-.42.31-.81.62-1.17.92a6,6,0,0,0-.94.94,2.63,2.63,0,0,0-.53,1.07,2.77,2.77,0,0,0,.06,1.33.56.56,0,0,0,.27.41,1.94,1.94,0,0,0,.67.14,1.74,1.74,0,0,1,1.34.68A2.48,2.48,0,0,1,16,13.31a1.83,1.83,0,0,1-.7,1.48A2.44,2.44,0,0,1,13.65,15.38Z" fill="#fff"/><path d="M24.62,16.62a2.54,2.54,0,0,1,1.23.29,3,3,0,0,1,.9.77,3.31,3.31,0,0,1,.56,1.07,3.77,3.77,0,0,1,.2,1.23,7.06,7.06,0,0,1-.33,2.31,4.89,4.89,0,0,1-1,1.64,7.44,7.44,0,0,1-1.49,1.27c-.57.38-1.19.76-1.87,1.15-.18.11-.34.06-.47-.15a.34.34,0,0,1,.08-.51c.42-.31.81-.62,1.17-.92a6,6,0,0,0,.94-.94,2.53,2.53,0,0,0,.47-2.4.54.54,0,0,0-.28-.41,1.93,1.93,0,0,0-.66-.14,1.78,1.78,0,0,1-1.35-.68,2.48,2.48,0,0,1-.45-1.51A1.84,1.84,0,0,1,23,17.21,2.42,2.42,0,0,1,24.62,16.62Zm-6.27,0a2.54,2.54,0,0,1,1.23.29,3,3,0,0,1,.9.77,3.33,3.33,0,0,1,.57,1.07A4,4,0,0,1,21.24,20a7.06,7.06,0,0,1-.33,2.31,4.89,4.89,0,0,1-1,1.64,7.38,7.38,0,0,1-1.48,1.27c-.57.38-1.2.76-1.88,1.15-.18.11-.34.06-.47-.15a.34.34,0,0,1,.08-.51c.42-.31.81-.62,1.17-.92a6,6,0,0,0,.94-.94,2.63,2.63,0,0,0,.53-1.07,2.77,2.77,0,0,0-.06-1.33.56.56,0,0,0-.27-.41,1.94,1.94,0,0,0-.67-.14,1.74,1.74,0,0,1-1.34-.68,2.48,2.48,0,0,1-.45-1.51,1.83,1.83,0,0,1,.7-1.48A2.44,2.44,0,0,1,18.35,16.62Z" fill="#eceff1"/></g></g></svg>