<svg xmlns="http://www.w3.org/2000/svg" viewBox="0 0 32 32"><title>character</title><g id="Layer_2" data-name="Layer 2"><g id="character"><path d="M26.73,0H5.27A5.27,5.27,0,0,0,0,5.27V26.73A5.27,5.27,0,0,0,5.27,32H26.73A5.27,5.27,0,0,0,32,26.73V5.27A5.27,5.27,0,0,0,26.73,0Zm-.21,27.6h-21V25.89c0-2.23,3.33-4.25,7-5a1.6,1.6,0,0,0,.81-1.72,7.7,7.7,0,0,1-1.42-2.94,3.08,3.08,0,0,1-.71-.5,4.42,4.42,0,0,1-.6-2.53c.1-.81.3-.51.4-.71a7,7,0,0,1,.51-5.87c1.92-3.34,6-2.33,6.57-1.12,3.85-.7,3.75,5.37,3.14,6.89,0,0,.3.1.3,1.51a3.6,3.6,0,0,1-1.31,2.43,6.82,6.82,0,0,1-1.32,2.74,1.1,1.1,0,0,0,.71,1.72c3.65.7,7,2.73,7,5Z" fill="#5c6bc0"/></g></g></svg>