<svg xmlns="http://www.w3.org/2000/svg" viewBox="0 0 32 32"><title>dialog</title><g id="Layer_2" data-name="Layer 2"><g id="dialog"><rect width="32" height="32" rx="5.27" ry="5.27" fill="#7986cb"/><path d="M13.54,18.88h9c.23,0,.34-.15.34-.43V8.14c0-.26-.11-.39-.34-.39H6.46Q6,7.75,6,8.14V18.45a.39.39,0,0,0,.17.28.47.47,0,0,0,.31.15H9.21v4.29Z" fill="#fff"/><path d="M25.64,10.79H24.09v8c0,.84-.4,1.25-1.2,1.25H14.17L12.29,22h6.26l4.34,4.29V22h2.75c.25,0,.38-.14.38-.43V11.22C26,10.93,25.89,10.79,25.64,10.79Z" fill="#cfd8dc"/></g></g></svg>