<svg xmlns="http://www.w3.org/2000/svg" viewBox="0 0 32 32"><title>Asset 2</title><g id="Layer_2" data-name="Layer 2"><g id="image-group"><rect width="32" height="32" rx="5.27" ry="5.27" fill="#55779d"/><rect id="Rectangle" x="16.61" y="3.96" width="13.46" height="16.7" fill="#91bff4"/><path id="Rectangle-10" d="M20,9.27h0a1.28,1.28,0,0,1,1.28,1.28h0A1.28,1.28,0,0,1,20,11.84h0a1.29,1.29,0,0,1-1.29-1.29h0A1.28,1.28,0,0,1,20,9.27Z" fill="#ffc90f"/><path d="M28.63,20.67l-7.8-7.8-4.22,4.21v3a1.73,1.73,0,0,0,.12.6Z" fill="#40915a"/><polygon points="30.07 20.67 30.07 13.37 27.52 10.81 17.66 20.67 30.07 20.67" fill="#4cad6b"/><rect id="Rectangle-2" data-name="Rectangle" x="1.93" y="3.96" width="13.46" height="23.2" fill="#91bff4"/><path id="Rectangle-10-2" data-name="Rectangle-10" d="M4.06,12.5h0A1.52,1.52,0,0,1,5.59,14h0a1.53,1.53,0,0,1-1.53,1.54h0A1.54,1.54,0,0,1,2.52,14h0A1.53,1.53,0,0,1,4.06,12.5Z" fill="#ffc90f"/><polygon points="1.93 19.97 1.93 27.17 14.62 27.17 15.05 26.74 5.1 16.79 1.93 19.97" fill="#40915a"/><path d="M15.39,27.13V16.64l-2.31-2.3L1.93,25.49v1.68H15.26Z" fill="#4cad6b"/></g></g></svg>