<svg xmlns="http://www.w3.org/2000/svg" viewBox="0 0 32 32"><title>post-header</title><g id="Layer_2" data-name="Layer 2"><g id="post-header"><rect width="32" height="32" rx="5.27" ry="5.27" fill="#91bff4"/><path d="M0,16H32a0,0,0,0,1,0,0V28.26A3.74,3.74,0,0,1,28.26,32H3.74A3.74,3.74,0,0,1,0,28.26V16A0,0,0,0,1,0,16Z" fill="#546e7a"/><path id="Rectangle-10" d="M11.79,2.08h0a1.41,1.41,0,0,1,1.4,1.41h0a1.4,1.4,0,0,1-1.4,1.4h0a1.41,1.41,0,0,1-1.41-1.4h0A1.41,1.41,0,0,1,11.79,2.08Z" fill="#ffc90f"/><polygon id="Shape" points="12.82 20.97 15.26 20.97 15.26 28.28 14.04 28.28 14.04 29.5 18.92 29.5 18.92 28.28 17.7 28.28 17.7 20.97 20.14 20.97 20.14 22.19 21.35 22.19 21.35 20.97 21.35 19.75 11.6 19.75 11.6 20.97 11.6 22.19 12.82 22.19 12.82 20.97" fill="#fff"/><polygon points="3.81 16 12.67 7.14 21.84 16.1 3.81 16" fill="#40915a"/><polygon points="29.34 10.08 23.42 16 32 16 32 12.69 29.34 10.08" fill="#40915a"/><polygon points="8.94 16 20.04 4.89 31.42 16 8.94 16" fill="#4cad6b"/><polygon points="0 16 6.88 16 0 9.28 0 16" fill="#4cad6b"/></g></g></svg>