<svg xmlns="http://www.w3.org/2000/svg" viewBox="0 0 32 32"><title>singleimage</title><g id="Layer_2" data-name="Layer 2"><g id="post-header_copy" data-name="post-header copy"><rect width="32" height="32" rx="5.27" ry="5.27" fill="#91bff4"/><path id="Rectangle-10" d="M7.64,4.7h0a2.94,2.94,0,0,1,2.94,2.94h0a2.94,2.94,0,0,1-2.94,2.94h0A2.94,2.94,0,0,1,4.7,7.64h0A2.94,2.94,0,0,1,7.64,4.7Z" fill="#ffc90f"/><path d="M5.27,32H26.73a5.21,5.21,0,0,0,1.68-.3L9.64,12.93,0,22.57v4.16A5.27,5.27,0,0,0,5.27,32Z" fill="#40915a"/><path d="M2.43,31a5.28,5.28,0,0,0,3.1,1H27a5.25,5.25,0,0,0,5-3.72V15.05L25.18,8.23Z" fill="#4cad6b"/></g></g></svg>