<svg xmlns="http://www.w3.org/2000/svg" viewBox="0 0 32 32"><title>text-image</title><g id="Layer_2" data-name="Layer 2"><g id="text-image"><rect width="32" height="32" rx="5.27" ry="5.27" fill="#91bff4"/><path id="Rectangle-10" d="M26,8.5h0A2.5,2.5,0,0,1,23.5,11h0A2.5,2.5,0,0,1,21,8.5h0A2.5,2.5,0,0,1,23.5,6h0A2.5,2.5,0,0,1,26,8.5Z" fill="#ffc90f"/><path d="M8.8,11,0,19.8v6.93A5.27,5.27,0,0,0,5.27,32H26.73a5.15,5.15,0,0,0,2.44-.63Z" fill="#4cad6b"/><path d="M5.6,31.2l.8.8H26.73A5.27,5.27,0,0,0,32,26.73V25.2L21.8,15Z" fill="#40915a"/><path d="M5.27,0A5.27,5.27,0,0,0,0,5.27V26.73A5.27,5.27,0,0,0,5.27,32H12.5V0Z" fill="#bdd7ef"/><path d="M8.8,11,0,19.8v6.93A5.27,5.27,0,0,0,5.27,32H12.5V14.7Z" fill="#a8d7dd"/><path d="M26,32h.73a4.92,4.92,0,0,0,.78-.07C27,32,26.51,32,26,32Z" fill="#a8d7dd"/><rect x="3" y="6.29" width="6.5" height="1.42"/><rect x="3" y="10.91" width="6.5" height="1.42"/><rect x="3" y="15.52" width="6.5" height="1.42"/><rect x="3" y="20.14" width="6.5" height="1.42"/><rect x="3" y="24.75" width="6.5" height="1.42"/></g></g></svg>